<?xml version="1.0" encoding="UTF-8" standalone="no"?>
<svg
   xmlns:dc="http://purl.org/dc/elements/1.1/"
   xmlns:cc="http://creativecommons.org/ns#"
   xmlns:rdf="http://www.w3.org/1999/02/22-rdf-syntax-ns#"
   xmlns:svg="http://www.w3.org/2000/svg"
   xmlns="http://www.w3.org/2000/svg"
   xmlns:sodipodi="http://sodipodi.sourceforge.net/DTD/sodipodi-0.dtd"
   xmlns:inkscape="http://www.inkscape.org/namespaces/inkscape"
   version="1.2"
   width="247.7244"
   height="291.88828"
   viewBox="0 0 69.913332 82.377358"
   id="svg2"
   inkscape:version="0.48.5 r10040"
   sodipodi:docname="projections.svg">
  <metadata
     id="metadata218">
    <rdf:RDF>
      <cc:Work
         rdf:about="">
        <dc:format>image/svg+xml</dc:format>
        <dc:type
           rdf:resource="http://purl.org/dc/dcmitype/StillImage" />
        <dc:title></dc:title>
      </cc:Work>
    </rdf:RDF>
  </metadata>
  <defs
     id="defs216">
    <marker
       inkscape:stockid="Arrow2Lend"
       orient="auto"
       refY="0"
       refX="0"
       id="Arrow2Lend"
       style="overflow:visible">
      <path
         id="path4307"
         style="fill-rule:evenodd;stroke-width:0.625;stroke-linejoin:round"
         d="M 8.7185878,4.0337352 -2.2072895,0.01601326 8.7185884,-4.0017078 c -1.7454984,2.3720609 -1.7354408,5.6174519 -6e-7,8.035443 z"
         transform="matrix(-1.1,0,0,-1.1,-1.1,0)"
         inkscape:connector-curvature="0" />
    </marker>
    <marker
       inkscape:stockid="TriangleOutM"
       orient="auto"
       refY="0"
       refX="0"
       id="TriangleOutM"
       style="overflow:visible">
      <path
         id="path4431"
         d="m 5.77,0 -8.65,5 0,-10 8.65,5 z"
         style="fill-rule:evenodd;stroke:#000000;stroke-width:1pt"
         transform="scale(0.4,0.4)"
         inkscape:connector-curvature="0" />
    </marker>
    <marker
       inkscape:stockid="TriangleOutM"
       orient="auto"
       refY="0"
       refX="0"
       id="TriangleOutM-4"
       style="overflow:visible">
      <path
         inkscape:connector-curvature="0"
         id="path4431-9"
         d="m 5.77,0 -8.65,5 0,-10 8.65,5 z"
         style="fill-rule:evenodd;stroke:#000000;stroke-width:1pt"
         transform="scale(0.4,0.4)" />
    </marker>
  </defs>
  <sodipodi:namedview
     pagecolor="#ffffff"
     bordercolor="#666666"
     borderopacity="1"
     objecttolerance="10"
     gridtolerance="10"
     guidetolerance="10"
     inkscape:pageopacity="0"
     inkscape:pageshadow="2"
     inkscape:window-width="1424"
     inkscape:window-height="823"
     id="namedview214"
     showgrid="false"
     fit-margin-top="3"
     fit-margin-left="3"
     fit-margin-right="3"
     fit-margin-bottom="3"
     inkscape:zoom="1.4847558"
     inkscape:cx="55.481914"
     inkscape:cy="88.845962"
     inkscape:window-x="0"
     inkscape:window-y="0"
     inkscape:window-maximized="0"
     inkscape:current-layer="svg2" />
  <desc
     id="desc4">Generated by the Chemistry Development Kit (http://github.com/cdk)</desc>
  <g
     id="g3390"
     transform="translate(0.2866667,2.5444432)">
    <g
       id="mol1"
       class="mol"
       style="fill:#444444;stroke:#444444;stroke-width:0.18000001;stroke-linecap:round;stroke-linejoin:round">
      <line
         id="mol1bnd1"
         class="bond"
         x1="27.129999"
         y1="17.790001"
         x2="23.809999"
         y2="19.76" />
      <line
         id="mol1bnd2"
         class="bond"
         x1="27.129999"
         y1="13.99"
         x2="27.129999"
         y2="17.790001" />
      <line
         id="mol1bnd3"
         class="bond"
         x1="18.379999"
         y1="17.809999"
         x2="21.780001"
         y2="19.780001" />
      <g
         id="mol1bnd4"
         class="bond">
        <line
           x1="18.379999"
           y1="12.79"
           x2="18.379999"
           y2="17.809999"
           id="line15" />
        <line
           x1="19.299999"
           y1="13.31"
           x2="19.299999"
           y2="17.290001"
           id="line17" />
      </g>
      <line
         id="mol1bnd5"
         class="bond"
         x1="22.709999"
         y1="10.24"
         x2="18.379999"
         y2="12.79" />
      <line
         id="mol1bnd6"
         class="bond"
         x1="22.85"
         y1="25.389999"
         x2="22.809999"
         y2="21.65" />
      <line
         id="mol1bnd7"
         class="bond"
         x1="17.540001"
         y1="22.85"
         x2="22.85"
         y2="25.389999" />
      <g
         id="mol1bnd8"
         class="bond">
        <line
           x1="30.17"
           y1="20.030001"
           x2="26.67"
           y2="18.059999"
           id="line23" />
        <line
           x1="30.620001"
           y1="19.24"
           x2="27.129999"
           y2="17.26"
           id="line25" />
      </g>
      <g
         id="mol1bnd9"
         class="bond">
        <line
           x1="23.17"
           y1="6.48"
           x2="23.17"
           y2="10.49"
           id="line28" />
        <line
           x1="22.26"
           y1="6.48"
           x2="22.26"
           y2="10.51"
           id="line30" />
      </g>
      <line
         id="mol1bnd10"
         class="bond"
         x1="20.379999"
         y1="30.469999"
         x2="22.85"
         y2="25.389999" />
      <line
         id="mol1bnd11"
         class="bond"
         x1="9.8599997"
         y1="25.389999"
         x2="15.17"
         y2="22.85" />
      <line
         id="mol1bnd12"
         class="bond"
         x1="14.02"
         y1="10.29"
         x2="18.379999"
         y2="12.79" />
      <line
         id="mol1bnd13"
         class="bond"
         x1="12.3"
         y1="30.469999"
         x2="20.379999"
         y2="30.469999" />
      <line
         id="mol1bnd14"
         class="bond"
         x1="5.9499998"
         y1="20.370001"
         x2="9.8000002"
         y2="20.370001" />
      <line
         id="mol1bnd15"
         class="bond"
         x1="9.8000002"
         y1="20.370001"
         x2="9.8599997"
         y2="25.389999" />
      <line
         id="mol1bnd16"
         class="bond"
         x1="12.3"
         y1="30.469999"
         x2="9.8599997"
         y2="25.389999" />
      <line
         id="mol1bnd17"
         class="bond"
         x1="22.709999"
         y1="10.24"
         x2="26.110001"
         y2="12.14" />
      <path
         id="mol1atm1"
         class="atom"
         d="m 22.1,21.28 v -1.83 h 0.25 l 0.92,1.41 v -1.41 h 0.22 v 1.83 h -0.25 l -0.92,-1.41 v 1.41 z"
         inkscape:connector-curvature="0"
         style="stroke:none" />
      <g
         id="mol1atm3"
         class="atom">
        <path
           d="m 26.43,13.62 v -1.83 h 0.25 l 0.92,1.41 v -1.41 h 0.22 v 1.83 h -0.25 l -0.92,-1.41 v 1.41 z"
           id="path42"
           inkscape:connector-curvature="0"
           style="stroke:none" />
        <path
           d="m 28.03,13.62 v -1.83 h 0.26 v 0.77 h 0.87 v -0.77 h 0.26 v 1.83 h -0.26 v -0.86 h -0.87 v 0.86 z"
           id="path44"
           inkscape:connector-curvature="0"
           style="stroke:none" />
      </g>
      <path
         id="mol1atm8"
         class="atom"
         d="m 16.34,23.24 q -0.38,0 -0.61,-0.26 -0.23,-0.26 -0.23,-0.7 0,-0.44 0.23,-0.7 0.23,-0.26 0.62,-0.26 0.39,0 0.62,0.26 0.23,0.26 0.23,0.7 0,0.44 -0.23,0.7 -0.23,0.26 -0.63,0.26 z m 0.01,-0.19 q 0.28,0 0.43,-0.2 0.15,-0.2 0.15,-0.57 0,-0.36 -0.15,-0.56 -0.15,-0.2 -0.43,-0.2 -0.27,0 -0.43,0.2 -0.15,0.2 -0.15,0.56 0,0.36 0.15,0.56 0.15,0.21 0.42,0.21 z"
         inkscape:connector-curvature="0"
         style="stroke:none" />
      <path
         id="mol1atm9"
         class="atom"
         d="m 31.53,21.24 q -0.38,0 -0.61,-0.26 -0.23,-0.26 -0.23,-0.7 0,-0.44 0.23,-0.7 0.23,-0.26 0.62,-0.26 0.39,0 0.62,0.26 0.23,0.26 0.23,0.7 0,0.44 -0.23,0.7 -0.23,0.26 -0.63,0.26 z m 0,-0.19 q 0.28,0 0.43,-0.2 0.15,-0.2 0.15,-0.57 0,-0.36 -0.15,-0.56 -0.15,-0.2 -0.43,-0.2 -0.27,0 -0.43,0.2 -0.15,0.2 -0.15,0.56 0,0.36 0.15,0.56 0.15,0.21 0.42,0.21 z"
         inkscape:connector-curvature="0"
         style="stroke:none" />
      <path
         id="mol1atm10"
         class="atom"
         d="m 22.7,6.12 q -0.38,0 -0.61,-0.26 -0.23,-0.26 -0.23,-0.7 0,-0.44 0.23,-0.7 0.23,-0.26 0.62,-0.26 0.39,0 0.62,0.26 0.23,0.26 0.23,0.7 0,0.44 -0.23,0.7 -0.23,0.26 -0.63,0.26 z m 0.01,-0.2 q 0.28,0 0.43,-0.2 0.15,-0.2 0.15,-0.57 0,-0.36 -0.15,-0.56 -0.15,-0.2 -0.43,-0.2 -0.27,0 -0.43,0.2 -0.15,0.2 -0.15,0.56 0,0.36 0.15,0.56 0.15,0.21 0.42,0.21 z"
         inkscape:connector-curvature="0"
         style="stroke:none" />
      <g
         id="mol1atm15"
         class="atom">
        <path
           d="m 4.71,21.33 q -0.38,0 -0.61,-0.26 -0.23,-0.26 -0.23,-0.7 0,-0.44 0.23,-0.7 0.23,-0.26 0.62,-0.26 0.39,0 0.62,0.26 0.23,0.26 0.23,0.7 0,0.44 -0.23,0.7 -0.23,0.26 -0.63,0.26 z m 0.01,-0.2 Q 5,21.13 5.15,20.93 5.3,20.73 5.3,20.36 5.3,20 5.15,19.8 5,19.6 4.72,19.6 q -0.27,0 -0.43,0.2 -0.15,0.2 -0.15,0.56 0,0.36 0.15,0.56 0.15,0.21 0.42,0.21 z"
           id="path50"
           inkscape:connector-curvature="0"
           style="stroke:none" />
        <path
           d="m 2.27,21.28 v -1.83 h 0.26 v 0.77 H 3.4 v -0.77 h 0.26 v 1.83 H 3.4 V 20.42 H 2.53 v 0.86 z"
           id="path52"
           inkscape:connector-curvature="0"
           style="stroke:none" />
      </g>
    </g>
  </g>
  <g
     id="g3354"
     transform="translate(0.2866667,0.28666535)">
    <g
       id="mol2"
       class="mol"
       style="fill:#444444;stroke:#444444;stroke-width:0.18000001;stroke-linecap:round;stroke-linejoin:round">
      <path
         id="mol2bnd1"
         class="bond"
         d="m 53.59,21.86 h 0.18 l 0.34,-3.8 h -0.43 -0.43 z"
         inkscape:connector-curvature="0"
         style="stroke:none" />
      <line
         id="mol2bnd2"
         class="bond"
         x1="53.68"
         y1="21.860001"
         x2="50.630001"
         y2="24.09" />
      <line
         id="mol2bnd3"
         class="bond"
         x1="58.09"
         y1="14.24"
         x2="58.080002"
         y2="10.4" />
      <line
         id="mol2bnd4"
         class="bond"
         x1="57.060001"
         y1="8.54"
         x2="53.68"
         y2="6.5999999" />
      <line
         id="mol2bnd5"
         class="bond"
         x1="49.279999"
         y1="9.1499996"
         x2="53.68"
         y2="6.5999999" />
      <line
         id="mol2bnd6"
         class="bond"
         x1="49.279999"
         y1="14.24"
         x2="52.66"
         y2="16.200001" />
      <line
         id="mol2bnd7"
         class="bond"
         x1="50"
         y1="26.17"
         x2="51.139999"
         y2="29.690001" />
      <line
         id="mol2bnd8"
         class="bond"
         x1="51.139999"
         y1="29.690001"
         x2="56.220001"
         y2="29.690001" />
      <line
         id="mol2bnd9"
         class="bond"
         x1="56.220001"
         y1="29.690001"
         x2="57.790001"
         y2="24.860001" />
      <line
         id="mol2bnd10"
         class="bond"
         x1="57.790001"
         y1="24.860001"
         x2="53.68"
         y2="21.860001" />
      <g
         id="mol2bnd11"
         class="bond">
        <line
           x1="49.279999"
           y1="9.1499996"
           x2="49.279999"
           y2="14.24"
           id="line66" />
        <line
           x1="50.200001"
           y1="9.6700001"
           x2="50.189999"
           y2="13.71"
           id="line68" />
      </g>
      <path
         id="mol2bnd12"
         class="bond"
         d="m 51.22,29.75 -0.15,-0.11 -3.64,4.18 0.66,0.07 0.6,0.06 z"
         inkscape:connector-curvature="0"
         style="stroke:none" />
      <line
         id="mol2bnd13"
         class="bond"
         x1="54.689999"
         y1="16.200001"
         x2="58.09"
         y2="14.24" />
      <line
         id="mol2bnd14"
         class="bond"
         x1="48.16"
         y1="33.799999"
         x2="44.330002"
         y2="33.400002" />
      <g
         id="mol2bnd15"
         class="bond">
        <line
           x1="58.09"
           y1="13.71"
           x2="61.580002"
           y2="15.72"
           id="line74" />
        <line
           x1="57.630001"
           y1="14.5"
           x2="61.130001"
           y2="16.51"
           id="line76" />
      </g>
      <line
         id="mol2bnd16"
         class="bond"
         x1="49.279999"
         y1="9.1499996"
         x2="44.889999"
         y2="6.6100001" />
      <g
         id="mol2bnd17"
         class="bond">
        <line
           x1="53.220001"
           y1="6.8600001"
           x2="53.220001"
           y2="2.8499999"
           id="line80" />
        <line
           x1="54.139999"
           y1="6.8600001"
           x2="54.130001"
           y2="2.8399999"
           id="line82" />
      </g>
      <path
         id="mol2atm2"
         class="atom"
         d="m 52.98,17.7 v -1.83 h 0.25 l 0.92,1.41 v -1.41 h 0.22 V 17.7 H 54.12 L 53.2,16.29 v 1.41 z"
         inkscape:connector-curvature="0"
         style="stroke:none" />
      <g
         id="mol2atm4"
         class="atom">
        <path
           d="M 57.37,10.04 V 8.21 h 0.25 l 0.92,1.41 V 8.21 h 0.22 v 1.83 H 58.51 L 57.59,8.63 v 1.41 z"
           id="path86"
           inkscape:connector-curvature="0"
           style="stroke:none" />
        <path
           d="M 58.98,10.04 V 8.21 h 0.26 v 0.77 h 0.87 V 8.21 h 0.26 v 1.83 H 60.11 V 9.18 h -0.87 v 0.86 z"
           id="path88"
           inkscape:connector-curvature="0"
           style="stroke:none" />
      </g>
      <path
         id="mol2atm7"
         class="atom"
         d="m 62.48,17.73 q -0.38,0 -0.61,-0.26 -0.23,-0.26 -0.23,-0.7 0,-0.44 0.23,-0.7 0.23,-0.26 0.62,-0.26 0.39,0 0.62,0.26 0.23,0.26 0.23,0.7 0,0.44 -0.23,0.7 -0.23,0.26 -0.63,0.26 z m 0.01,-0.19 q 0.28,0 0.43,-0.2 0.15,-0.2 0.15,-0.57 0,-0.36 -0.15,-0.56 -0.15,-0.2 -0.43,-0.2 -0.27,0 -0.43,0.2 -0.15,0.2 -0.15,0.56 0,0.36 0.15,0.56 0.15,0.21 0.42,0.21 z"
         inkscape:connector-curvature="0"
         style="stroke:none" />
      <path
         id="mol2atm9"
         class="atom"
         d="m 49.56,25.82 q -0.38,0 -0.61,-0.26 -0.23,-0.26 -0.23,-0.7 0,-0.44 0.23,-0.7 0.23,-0.26 0.62,-0.26 0.39,0 0.62,0.26 0.23,0.26 0.23,0.7 0,0.44 -0.23,0.7 -0.23,0.26 -0.63,0.26 z m 0.01,-0.19 q 0.28,0 0.43,-0.2 0.15,-0.2 0.15,-0.57 0,-0.36 -0.15,-0.56 -0.15,-0.2 -0.43,-0.2 -0.27,0 -0.43,0.2 -0.15,0.2 -0.15,0.56 0,0.36 0.15,0.56 0.15,0.21 0.42,0.21 z"
         inkscape:connector-curvature="0"
         style="stroke:none" />
      <g
         id="mol2atm14"
         class="atom">
        <path
           d="m 43.1,34.23 q -0.38,0 -0.61,-0.26 -0.23,-0.26 -0.23,-0.7 0,-0.44 0.23,-0.7 0.23,-0.26 0.62,-0.26 0.39,0 0.62,0.26 0.23,0.26 0.23,0.7 0,0.44 -0.23,0.7 -0.23,0.26 -0.63,0.26 z m 0,-0.19 q 0.28,0 0.43,-0.2 0.15,-0.2 0.15,-0.57 0,-0.36 -0.15,-0.56 -0.15,-0.2 -0.43,-0.2 -0.27,0 -0.43,0.2 -0.15,0.2 -0.15,0.56 0,0.36 0.15,0.56 0.15,0.21 0.42,0.21 z"
           id="path93"
           inkscape:connector-curvature="0"
           style="stroke:none" />
        <path
           d="m 40.65,34.18 v -1.83 h 0.26 v 0.77 h 0.87 v -0.77 h 0.26 v 1.83 h -0.26 v -0.86 h -0.87 v 0.86 z"
           id="path95"
           inkscape:connector-curvature="0"
           style="stroke:none" />
      </g>
      <path
         id="mol2atm16"
         class="atom"
         d="m 53.66,2.48 q -0.38,0 -0.61,-0.26 -0.23,-0.26 -0.23,-0.7 0,-0.44 0.23,-0.7 0.23,-0.26 0.62,-0.26 0.39,0 0.62,0.26 0.23,0.26 0.23,0.7 0,0.44 -0.23,0.7 -0.23,0.26 -0.63,0.26 z m 0.01,-0.19 q 0.28,0 0.43,-0.2 0.15,-0.2 0.15,-0.57 0,-0.36 -0.15,-0.56 -0.15,-0.2 -0.43,-0.2 -0.27,0 -0.43,0.2 -0.15,0.2 -0.15,0.56 0,0.36 0.15,0.56 0.15,0.21 0.42,0.21 z"
         inkscape:connector-curvature="0"
         style="stroke:none" />
    </g>
  </g>
  <g
     id="g3426"
     transform="translate(0.2866667,15.823256)">
    <g
       id="mol3"
       class="mol"
       style="fill:#444444;stroke:#444444;stroke-width:0.18000001;stroke-linecap:round;stroke-linejoin:round">
      <line
         id="mol3bnd1"
         class="bond"
         x1="14.61"
         y1="56.27"
         x2="14.61"
         y2="52.459999" />
      <line
         id="mol3bnd2"
         class="bond"
         x1="11.23"
         y1="58.220001"
         x2="14.61"
         y2="56.27" />
      <line
         id="mol3bnd3"
         class="bond"
         x1="10.21"
         y1="48.639999"
         x2="13.6"
         y2="50.599998" />
      <g
         id="mol3bnd4"
         class="bond">
        <line
           x1="10.21"
           y1="48.639999"
           x2="5.8099999"
           y2="51.18"
           id="line103" />
        <line
           x1="10.21"
           y1="49.700001"
           x2="6.73"
           y2="51.709999"
           id="line105" />
      </g>
      <line
         id="mol3bnd5"
         class="bond"
         x1="5.8099999"
         y1="56.259998"
         x2="5.8099999"
         y2="51.18" />
      <line
         id="mol3bnd6"
         class="bond"
         x1="19.01"
         y1="48.639999"
         x2="15.63"
         y2="50.599998" />
      <line
         id="mol3bnd7"
         class="bond"
         x1="19.389999"
         y1="44.91"
         x2="19.01"
         y2="48.639999" />
      <g
         id="mol3bnd8"
         class="bond">
        <line
           x1="17.65"
           y1="58.540001"
           x2="14.16"
           y2="56.529999"
           id="line111" />
        <line
           x1="18.1"
           y1="57.75"
           x2="14.61"
           y2="55.740002"
           id="line113" />
      </g>
      <g
         id="mol3bnd9"
         class="bond">
        <line
           x1="2.3299999"
           y1="57.75"
           x2="5.8099999"
           y2="55.740002"
           id="line116" />
        <line
           x1="2.78"
           y1="58.540001"
           x2="6.27"
           y2="56.529999"
           id="line118" />
      </g>
      <line
         id="mol3bnd10"
         class="bond"
         x1="23.620001"
         y1="50.720001"
         x2="19.01"
         y2="48.639999" />
      <line
         id="mol3bnd11"
         class="bond"
         x1="24.51"
         y1="42.57"
         x2="20.74"
         y2="43.34" />
      <line
         id="mol3bnd12"
         class="bond"
         x1="1.41"
         y1="48.639999"
         x2="5.8099999"
         y2="51.18" />
      <line
         id="mol3bnd13"
         class="bond"
         x1="27.030001"
         y1="46.950001"
         x2="23.620001"
         y2="50.720001" />
      <line
         id="mol3bnd14"
         class="bond"
         x1="30.440001"
         y1="37.549999"
         x2="26.6"
         y2="37.939999" />
      <line
         id="mol3bnd15"
         class="bond"
         x1="26.6"
         y1="37.939999"
         x2="24.51"
         y2="42.57" />
      <line
         id="mol3bnd16"
         class="bond"
         x1="27.030001"
         y1="46.950001"
         x2="24.51"
         y2="42.57" />
      <line
         id="mol3bnd17"
         class="bond"
         x1="5.8099999"
         y1="56.259998"
         x2="9.1999998"
         y2="58.220001" />
      <path
         id="mol3atm1"
         class="atom"
         d="m 13.91,52.1 v -1.83 h 0.25 l 0.92,1.41 v -1.41 h 0.22 v 1.83 h -0.25 l -0.92,-1.41 v 1.41 z"
         inkscape:connector-curvature="0"
         style="stroke:none" />
      <g
         id="mol3atm3"
         class="atom">
        <path
           d="m 9.52,59.72 v -1.83 h 0.25 l 0.92,1.41 v -1.41 h 0.22 v 1.83 H 10.66 L 9.74,58.31 v 1.41 z"
           id="path130"
           inkscape:connector-curvature="0"
           style="stroke:none" />
        <path
           d="m 9.52,61.76 v -1.83 h 0.26 v 0.77 h 0.87 v -0.77 h 0.26 v 1.83 H 10.65 V 60.9 H 9.78 v 0.86 z"
           id="path132"
           inkscape:connector-curvature="0"
           style="stroke:none" />
      </g>
      <path
         id="mol3atm8"
         class="atom"
         d="m 19.52,44.54 q -0.38,0 -0.61,-0.26 -0.23,-0.26 -0.23,-0.7 0,-0.44 0.23,-0.7 0.23,-0.26 0.62,-0.26 0.39,0 0.62,0.26 0.23,0.26 0.23,0.7 0,0.44 -0.23,0.7 -0.23,0.26 -0.63,0.26 z m 0,-0.19 q 0.28,0 0.43,-0.2 0.15,-0.2 0.15,-0.57 0,-0.36 -0.15,-0.56 -0.15,-0.2 -0.43,-0.2 -0.27,0 -0.43,0.2 -0.15,0.2 -0.15,0.56 0,0.36 0.15,0.56 0.15,0.21 0.42,0.21 z"
         inkscape:connector-curvature="0"
         style="stroke:none" />
      <path
         id="mol3atm9"
         class="atom"
         d="m 19,59.77 q -0.38,0 -0.61,-0.26 -0.23,-0.26 -0.23,-0.7 0,-0.44 0.23,-0.7 0.23,-0.26 0.62,-0.26 0.39,0 0.62,0.26 0.23,0.26 0.23,0.7 0,0.44 -0.23,0.7 -0.23,0.26 -0.63,0.26 z m 0.01,-0.2 q 0.28,0 0.43,-0.2 0.15,-0.2 0.15,-0.57 0,-0.36 -0.15,-0.56 -0.15,-0.2 -0.43,-0.2 -0.27,0 -0.43,0.2 -0.15,0.2 -0.15,0.56 0,0.36 0.15,0.56 0.15,0.21 0.42,0.21 z"
         inkscape:connector-curvature="0"
         style="stroke:none" />
      <path
         id="mol3atm10"
         class="atom"
         d="m 1.4,59.76 q -0.38,0 -0.61,-0.26 -0.23,-0.26 -0.23,-0.7 0,-0.44 0.23,-0.7 0.23,-0.26 0.62,-0.26 0.39,0 0.62,0.26 0.23,0.26 0.23,0.7 0,0.44 -0.23,0.7 -0.23,0.26 -0.63,0.26 z m 0.01,-0.19 q 0.28,0 0.43,-0.2 0.15,-0.2 0.15,-0.57 0,-0.36 -0.15,-0.56 -0.15,-0.2 -0.43,-0.2 -0.27,0 -0.43,0.2 -0.15,0.2 -0.15,0.56 0,0.36 0.15,0.56 0.15,0.21 0.42,0.21 z"
         inkscape:connector-curvature="0"
         style="stroke:none" />
      <g
         id="mol3atm15"
         class="atom">
        <path
           d="m 31.64,38.39 q -0.38,0 -0.61,-0.26 -0.23,-0.26 -0.23,-0.7 0,-0.44 0.23,-0.7 0.23,-0.26 0.62,-0.26 0.39,0 0.62,0.26 0.23,0.26 0.23,0.7 0,0.44 -0.23,0.7 -0.23,0.26 -0.63,0.26 z m 0.01,-0.19 q 0.28,0 0.43,-0.2 0.15,-0.2 0.15,-0.57 0,-0.36 -0.15,-0.56 -0.15,-0.2 -0.43,-0.2 -0.27,0 -0.43,0.2 -0.15,0.2 -0.15,0.56 0,0.36 0.15,0.56 0.15,0.21 0.42,0.21 z"
           id="path138"
           inkscape:connector-curvature="0"
           style="stroke:none" />
        <path
           d="m 32.72,38.34 v -1.83 h 0.26 v 0.77 h 0.87 v -0.77 h 0.26 v 1.83 h -0.26 v -0.86 h -0.87 v 0.86 z"
           id="path140"
           inkscape:connector-curvature="0"
           style="stroke:none" />
      </g>
    </g>
  </g>
  <g
     id="g3462"
     transform="translate(0.2866667,15.823256)">
    <g
       id="mol4"
       class="mol"
       style="fill:#444444;stroke:#444444;stroke-width:0.18000001;stroke-linecap:round;stroke-linejoin:round">
      <g
         id="mol4bnd1"
         class="bond">
        <line
           x1="53.73"
           y1="48.720001"
           x2="53.630001"
           y2="48.560001"
           id="line144" />
        <line
           x1="53.130001"
           y1="49.139999"
           x2="52.970001"
           y2="48.869999"
           id="line146" />
        <line
           x1="52.529999"
           y1="49.560001"
           x2="52.310001"
           y2="49.18"
           id="line148" />
        <line
           x1="51.939999"
           y1="49.98"
           x2="51.650002"
           y2="49.48"
           id="line150" />
        <line
           x1="51.34"
           y1="50.400002"
           x2="50.990002"
           y2="49.790001"
           id="line152" />
        <line
           x1="50.75"
           y1="50.82"
           x2="50.330002"
           y2="50.099998"
           id="line154" />
      </g>
      <line
         id="mol4bnd2"
         class="bond"
         x1="53.68"
         y1="48.639999"
         x2="54.060001"
         y2="44.91" />
      <line
         id="mol4bnd3"
         class="bond"
         x1="49.279999"
         y1="56.27"
         x2="45.900002"
         y2="58.220001" />
      <line
         id="mol4bnd4"
         class="bond"
         x1="43.869999"
         y1="58.220001"
         x2="40.48"
         y2="56.259998" />
      <line
         id="mol4bnd5"
         class="bond"
         x1="40.48"
         y1="51.18"
         x2="40.48"
         y2="56.259998" />
      <line
         id="mol4bnd6"
         class="bond"
         x1="44.880001"
         y1="48.639999"
         x2="48.27"
         y2="50.599998" />
      <line
         id="mol4bnd7"
         class="bond"
         x1="55.41"
         y1="43.34"
         x2="59.18"
         y2="42.57" />
      <line
         id="mol4bnd8"
         class="bond"
         x1="59.18"
         y1="42.57"
         x2="61.700001"
         y2="46.950001" />
      <line
         id="mol4bnd9"
         class="bond"
         x1="61.700001"
         y1="46.950001"
         x2="58.290001"
         y2="50.720001" />
      <line
         id="mol4bnd10"
         class="bond"
         x1="58.290001"
         y1="50.720001"
         x2="53.68"
         y2="48.639999" />
      <g
         id="mol4bnd11"
         class="bond">
        <line
           x1="44.880001"
           y1="48.639999"
           x2="40.48"
           y2="51.18"
           id="line166" />
        <line
           x1="44.880001"
           y1="49.700001"
           x2="41.400002"
           y2="51.709999"
           id="line168" />
      </g>
      <g
         id="mol4bnd12"
         class="bond">
        <line
           x1="59.27"
           y1="42.560001"
           x2="59.09"
           y2="42.580002"
           id="line171" />
        <line
           x1="59.630001"
           y1="41.889999"
           x2="59.32"
           y2="41.919998"
           id="line173" />
        <line
           x1="60"
           y1="41.220001"
           x2="59.560001"
           y2="41.27"
           id="line175" />
        <line
           x1="60.360001"
           y1="40.549999"
           x2="59.790001"
           y2="40.610001"
           id="line177" />
        <line
           x1="60.720001"
           y1="39.889999"
           x2="60.02"
           y2="39.959999"
           id="line179" />
        <line
           x1="61.09"
           y1="39.220001"
           x2="60.259998"
           y2="39.299999"
           id="line181" />
        <line
           x1="61.450001"
           y1="38.549999"
           x2="60.490002"
           y2="38.650002"
           id="line183" />
        <line
           x1="61.810001"
           y1="37.880001"
           x2="60.720001"
           y2="37.990002"
           id="line185" />
      </g>
      <line
         id="mol4bnd13"
         class="bond"
         x1="49.279999"
         y1="52.459999"
         x2="49.279999"
         y2="56.27" />
      <line
         id="mol4bnd14"
         class="bond"
         x1="61.27"
         y1="37.939999"
         x2="65.099998"
         y2="37.549999" />
      <g
         id="mol4bnd15"
         class="bond">
        <line
           x1="49.279999"
           y1="55.740002"
           x2="52.77"
           y2="57.75"
           id="line190" />
        <line
           x1="48.830002"
           y1="56.529999"
           x2="52.32"
           y2="58.540001"
           id="line192" />
      </g>
      <line
         id="mol4bnd16"
         class="bond"
         x1="40.48"
         y1="51.18"
         x2="36.080002"
         y2="48.639999" />
      <g
         id="mol4bnd17"
         class="bond">
        <line
           x1="40.939999"
           y1="56.529999"
           x2="37.450001"
           y2="58.540001"
           id="line196" />
        <line
           x1="40.48"
           y1="55.740002"
           x2="36.990002"
           y2="57.75"
           id="line198" />
      </g>
      <path
         id="mol4atm2"
         class="atom"
         d="m 48.58,52.1 v -1.83 h 0.25 l 0.92,1.41 v -1.41 h 0.22 V 52.1 H 49.72 L 48.8,50.69 v 1.41 z"
         inkscape:connector-curvature="0"
         style="stroke:none" />
      <g
         id="mol4atm4"
         class="atom">
        <path
           d="m 44.18,59.72 v -1.83 h 0.25 l 0.92,1.41 v -1.41 h 0.22 v 1.83 H 45.32 L 44.4,58.31 v 1.41 z"
           id="path202"
           inkscape:connector-curvature="0"
           style="stroke:none" />
        <path
           d="m 44.18,61.76 v -1.83 h 0.26 v 0.77 h 0.87 v -0.77 h 0.26 v 1.83 H 45.31 V 60.9 h -0.87 v 0.86 z"
           id="path204"
           inkscape:connector-curvature="0"
           style="stroke:none" />
      </g>
      <path
         id="mol4atm7"
         class="atom"
         d="m 53.67,59.77 q -0.38,0 -0.61,-0.26 -0.23,-0.26 -0.23,-0.7 0,-0.44 0.23,-0.7 0.23,-0.26 0.62,-0.26 0.39,0 0.62,0.26 0.23,0.26 0.23,0.7 0,0.44 -0.23,0.7 -0.23,0.26 -0.63,0.26 z m 0,-0.2 q 0.28,0 0.43,-0.2 0.15,-0.2 0.15,-0.57 0,-0.36 -0.15,-0.56 -0.15,-0.2 -0.43,-0.2 -0.27,0 -0.43,0.2 -0.15,0.2 -0.15,0.56 0,0.36 0.15,0.56 0.15,0.21 0.42,0.21 z"
         inkscape:connector-curvature="0"
         style="stroke:none" />
      <path
         id="mol4atm9"
         class="atom"
         d="m 54.18,44.54 q -0.38,0 -0.61,-0.26 -0.23,-0.26 -0.23,-0.7 0,-0.44 0.23,-0.7 0.23,-0.26 0.62,-0.26 0.39,0 0.62,0.26 0.23,0.26 0.23,0.7 0,0.44 -0.23,0.7 -0.23,0.26 -0.63,0.26 z m 0.01,-0.19 q 0.28,0 0.43,-0.2 0.15,-0.2 0.15,-0.57 0,-0.36 -0.15,-0.56 -0.15,-0.2 -0.43,-0.2 -0.27,0 -0.43,0.2 -0.15,0.2 -0.15,0.56 0,0.36 0.15,0.56 0.15,0.21 0.42,0.21 z"
         inkscape:connector-curvature="0"
         style="stroke:none" />
      <g
         id="mol4atm14"
         class="atom">
        <path
           d="m 66.31,38.39 q -0.38,0 -0.61,-0.26 -0.23,-0.26 -0.23,-0.7 0,-0.44 0.23,-0.7 0.23,-0.26 0.62,-0.26 0.39,0 0.62,0.26 0.23,0.26 0.23,0.7 0,0.44 -0.23,0.7 -0.23,0.26 -0.63,0.26 z m 0.01,-0.19 q 0.28,0 0.43,-0.2 0.15,-0.2 0.15,-0.57 0,-0.36 -0.15,-0.56 -0.15,-0.2 -0.43,-0.2 -0.27,0 -0.43,0.2 -0.15,0.2 -0.15,0.56 0,0.36 0.15,0.56 0.15,0.21 0.42,0.21 z"
           id="path209"
           inkscape:connector-curvature="0"
           style="stroke:none" />
        <path
           d="m 67.39,38.34 v -1.83 h 0.26 v 0.77 h 0.87 v -0.77 h 0.26 v 1.83 h -0.26 v -0.86 h -0.87 v 0.86 z"
           id="path211"
           inkscape:connector-curvature="0"
           style="stroke:none" />
      </g>
      <path
         id="mol4atm16"
         class="atom"
         d="m 36.07,59.76 q -0.38,0 -0.61,-0.26 -0.23,-0.26 -0.23,-0.7 0,-0.44 0.23,-0.7 0.23,-0.26 0.62,-0.26 0.39,0 0.62,0.26 0.23,0.26 0.23,0.7 0,0.44 -0.23,0.7 -0.23,0.26 -0.63,0.26 z m 0.01,-0.19 q 0.28,0 0.43,-0.2 0.15,-0.2 0.15,-0.57 0,-0.36 -0.15,-0.56 -0.15,-0.2 -0.43,-0.2 -0.27,0 -0.43,0.2 -0.15,0.2 -0.15,0.56 0,0.36 0.15,0.56 0.15,0.21 0.42,0.21 z"
         inkscape:connector-curvature="0"
         style="stroke:none" />
    </g>
  </g>
  <text
     xml:space="preserve"
     style="font-size:3.38666677px;font-style:normal;font-weight:normal;line-height:125%;letter-spacing:0px;word-spacing:0px;fill:#000000;fill-opacity:1;stroke:none;font-family:Sans"
     x="8.0822601"
     y="38.014263"
     id="text3346"
     sodipodi:linespacing="125%"><tspan
       sodipodi:role="line"
       id="tspan3348"
       x="8.0822601"
       y="38.014263"
       style="font-size:2.25777793000000004px;font-style:normal;font-variant:normal;font-weight:bold;font-stretch:normal;font-family:Verdana;-inkscape-font-specification:Verdana Bold">CHEMBL23970</tspan></text>
  <text
     sodipodi:linespacing="125%"
     id="text3350"
     y="38.014263"
     x="43.565655"
     style="font-size:3.38666677px;font-style:normal;font-weight:normal;line-height:125%;letter-spacing:0px;word-spacing:0px;fill:#000000;fill-opacity:1;stroke:none;font-family:Sans"
     xml:space="preserve"><tspan
       style="font-size:2.25777793000000004px;font-style:normal;font-variant:normal;font-weight:bold;font-stretch:normal;font-family:Verdana;-inkscape-font-specification:Verdana Bold"
       y="38.014263"
       x="43.565655"
       id="tspan3352"
       sodipodi:role="line">CHEMBL444314</tspan></text>
  <path
     inkscape:connector-curvature="0"
     id="path3512"
     d="m 16.53125,39.125 0,15.84375 0.28125,0 0,-15.84375 -0.28125,0 z"
     style="font-size:medium;font-style:normal;font-variant:normal;font-weight:normal;font-stretch:normal;text-indent:0;text-align:start;text-decoration:none;line-height:normal;letter-spacing:normal;word-spacing:normal;text-transform:none;direction:ltr;block-progression:tb;writing-mode:lr-tb;text-anchor:start;baseline-shift:baseline;color:#000000;fill:#4d4d4d;fill-opacity:1;fill-rule:nonzero;stroke:none;stroke-width:0.28222224;marker:none;visibility:visible;display:inline;overflow:visible;enable-background:accumulate;font-family:Sans;-inkscape-font-specification:Sans" />
  <path
     id="path5156"
     style="fill:#4d4d4d;fill-rule:evenodd;stroke-width:0.625;stroke-linejoin:round"
     d="m 17.936546,52.813919 -1.24728,3.391878 -1.247279,-3.391878 c 0.736393,0.54188 1.743907,0.538758 2.494559,0 z"
     inkscape:connector-curvature="0" />
  <path
     inkscape:connector-curvature="0"
     id="path3512-9"
     d="m 52.4375,39.125 0,15.84375 0.28125,0 0,-15.84375 -0.28125,0 z"
     style="font-size:medium;font-style:normal;font-variant:normal;font-weight:normal;font-stretch:normal;text-indent:0;text-align:start;text-decoration:none;line-height:normal;letter-spacing:normal;word-spacing:normal;text-transform:none;direction:ltr;block-progression:tb;writing-mode:lr-tb;text-anchor:start;baseline-shift:baseline;color:#000000;fill:#4d4d4d;fill-opacity:1;fill-rule:nonzero;stroke:none;stroke-width:0.28222224;marker:none;visibility:visible;display:inline;overflow:visible;enable-background:accumulate;font-family:Sans;-inkscape-font-specification:Sans" />
  <path
     id="path5148"
     style="fill:#4d4d4d;fill-rule:evenodd;stroke-width:0.625;stroke-linejoin:round"
     d="m 53.823157,52.813919 -1.24728,3.391878 -1.247279,-3.391878 c 0.736393,0.54188 1.743907,0.538758 2.494559,0 z"
     inkscape:connector-curvature="0" />
  <g
     id="g5130"
     style="fill:#4d4d4d;stroke:none"
     transform="translate(1.4155556,4.2377766)">
    <path
       style="font-size:medium;font-style:normal;font-variant:normal;font-weight:normal;font-stretch:normal;text-indent:0;text-align:start;text-decoration:none;line-height:normal;letter-spacing:normal;word-spacing:normal;text-transform:none;direction:ltr;block-progression:tb;writing-mode:lr-tb;text-anchor:start;baseline-shift:baseline;color:#000000;fill:#4d4d4d;fill-opacity:1;fill-rule:nonzero;stroke:none;stroke-width:0.28222224;marker:none;visibility:visible;display:inline;overflow:visible;enable-background:accumulate;font-family:Sans;-inkscape-font-specification:Sans"
       d="M 20.1875,35.34375 20.0625,35.5625 47.65625,51.625 47.8125,51.375 20.1875,35.34375 z"
       id="path4932"
       inkscape:connector-curvature="0" />
    <path
       d="m 45.753763,48.905349 2.305419,2.783089 -3.559216,-0.626514 c 0.838582,-0.364265 1.342272,-1.236841 1.253797,-2.156575 z"
       style="fill:#4d4d4d;fill-rule:evenodd;stroke:none"
       id="path5136"
       inkscape:connector-curvature="0" />
  </g>
  <text
     sodipodi:linespacing="125%"
     id="text5122"
     y="81.49321"
     x="17.278736"
     style="font-size:3.38666677px;font-style:normal;font-weight:normal;line-height:125%;letter-spacing:0px;word-spacing:0px;fill:#000000;fill-opacity:1;stroke:none;font-family:Sans"
     xml:space="preserve"><tspan
       style="font-size:2.25777793px;font-style:normal;font-variant:normal;font-weight:bold;font-stretch:normal;text-align:center;text-anchor:middle;font-family:Verdana;-inkscape-font-specification:Verdana Bold"
       y="81.49321"
       x="17.278736"
       id="tspan5124"
       sodipodi:role="line">CID 5280</tspan></text>
  <text
     xml:space="preserve"
     style="font-size:3.38666677px;font-style:normal;font-weight:normal;line-height:125%;letter-spacing:0px;word-spacing:0px;fill:#000000;fill-opacity:1;stroke:none;font-family:Sans"
     x="53.593914"
     y="81.492661"
     id="text5138"
     sodipodi:linespacing="125%"><tspan
       sodipodi:role="line"
       id="tspan5140"
       x="53.593914"
       y="81.492661"
       style="font-size:2.25777793px;font-style:normal;font-variant:normal;font-weight:bold;font-stretch:normal;text-align:center;text-anchor:middle;font-family:Verdana;-inkscape-font-specification:Verdana Bold">CID 65119</tspan></text>
  <text
     xml:space="preserve"
     style="font-size:3.38666677px;font-style:normal;font-weight:normal;line-height:125%;letter-spacing:0px;word-spacing:0px;fill:#000000;fill-opacity:1;stroke:none;font-family:Sans"
     x="44.066444"
     y="21.708302"
     id="text5158"
     sodipodi:linespacing="125%"
     transform="matrix(0.86117937,0.50830118,-0.50830118,0.86117937,0,0)"><tspan
       sodipodi:role="line"
       id="tspan5160"
       x="44.066444"
       y="21.708302"
       style="font-size:1.97555566px;font-style:normal;font-variant:normal;font-weight:normal;font-stretch:normal;fill:#ff0000;font-family:Verdana;-inkscape-font-specification:Verdana">Projection Perception</tspan></text>
</svg>
