<?xml version="1.0" encoding="UTF-8" standalone="no"?>
<svg
   xmlns:dc="http://purl.org/dc/elements/1.1/"
   xmlns:cc="http://creativecommons.org/ns#"
   xmlns:rdf="http://www.w3.org/1999/02/22-rdf-syntax-ns#"
   xmlns:svg="http://www.w3.org/2000/svg"
   xmlns="http://www.w3.org/2000/svg"
   xmlns:sodipodi="http://sodipodi.sourceforge.net/DTD/sodipodi-0.dtd"
   xmlns:inkscape="http://www.inkscape.org/namespaces/inkscape"
   version="1.2"
   width="502.52646"
   height="128.629"
   viewBox="0 0 141.82413 36.30196"
   id="svg2"
   inkscape:version="0.48.5 r10040"
   sodipodi:docname="abbreviations_expanded.svg">
  <metadata
     id="metadata68">
    <rdf:RDF>
      <cc:Work
         rdf:about="">
        <dc:format>image/svg+xml</dc:format>
        <dc:type
           rdf:resource="http://purl.org/dc/dcmitype/StillImage" />
        <dc:title></dc:title>
      </cc:Work>
    </rdf:RDF>
  </metadata>
  <defs
     id="defs66" />
  <sodipodi:namedview
     pagecolor="#ffffff"
     bordercolor="#666666"
     borderopacity="1"
     objecttolerance="10"
     gridtolerance="10"
     guidetolerance="10"
     inkscape:pageopacity="0"
     inkscape:pageshadow="2"
     inkscape:window-width="1446"
     inkscape:window-height="839"
     id="namedview64"
     showgrid="false"
     fit-margin-top="5"
     fit-margin-left="5"
     fit-margin-right="5"
     fit-margin-bottom="5"
     inkscape:zoom="1.4544181"
     inkscape:cx="236.02823"
     inkscape:cy="109.03282"
     inkscape:window-x="0"
     inkscape:window-y="0"
     inkscape:window-maximized="0"
     inkscape:current-layer="svg2" />
  <desc
     id="desc4">Generated by the Chemistry Development Kit (http://github.com/cdk)</desc>
  <g
     id="g3173"
     transform="translate(0.00727153,1.6002741)">
    <g
       transform="translate(0.81111106,0.86111085)"
       id="mol1"
       class="reactant mol"
       style="fill:#000000;stroke:#000000;stroke-width:0.23999999;stroke-linecap:round;stroke-linejoin:round">
      <line
         id="mol1bnd1"
         class="bond"
         x1="0.72000003"
         y1="5.6500001"
         x2="6.4400001"
         y2="8.9499998" />
      <line
         id="mol1bnd2"
         class="bond"
         x1="6.4400001"
         y1="8.9499998"
         x2="10.68"
         y2="6.5100002" />
      <g
         id="mol1atm3"
         class="atom">
        <path
           d="m 12.15,6.9 q -0.49,0 -0.8,-0.34 -0.3,-0.34 -0.3,-0.91 0,-0.57 0.3,-0.91 0.3,-0.34 0.81,-0.34 0.51,0 0.81,0.34 0.3,0.34 0.3,0.9 0,0.58 -0.3,0.92 -0.3,0.34 -0.82,0.34 z m 0,-0.25 q 0.36,0 0.56,-0.26 0.2,-0.26 0.2,-0.74 0,-0.46 -0.2,-0.73 -0.2,-0.26 -0.56,-0.26 -0.35,0 -0.55,0.26 -0.2,0.26 -0.2,0.73 0,0.46 0.2,0.73 0.2,0.27 0.55,0.27 z"
           id="path14"
           inkscape:connector-curvature="0"
           style="stroke:none" />
        <path
           d="M 13.54,6.84 V 4.46 h 0.34 v 1 h 1.13 v -1 h 0.34 V 6.84 H 15.01 V 5.72 h -1.13 v 1.12 h -0.34 z"
           id="path16"
           inkscape:connector-curvature="0"
           style="stroke:none" />
      </g>
    </g>
    <path
       d="m 18.471111,8.8311108 v -0.83 h -0.83 v -0.24 h 0.83 v -0.83 h 0.24 v 0.83 h 0.83 v 0.24 h -0.83 v 0.83 h -0.24 z"
       id="path18"
       inkscape:connector-curvature="0"
       style="fill:#000000;stroke:none" />
    <g
       transform="translate(0.81111106,0.86111085)"
       id="mol2"
       class="reactant mol"
       style="fill:#000000;stroke:#000000;stroke-width:0.23999999;stroke-linecap:round;stroke-linejoin:round">
      <line
         id="mol2bnd1"
         class="bond"
         x1="38.259998"
         y1="1.8099999"
         x2="32.540001"
         y2="5.1100001" />
      <g
         id="mol2bnd2"
         class="bond">
        <line
           x1="33.139999"
           y1="4.77"
           x2="33.139999"
           y2="9.9899998"
           id="line23" />
        <line
           x1="31.950001"
           y1="4.77"
           x2="31.950001"
           y2="9.9899998"
           id="line25" />
      </g>
      <line
         id="mol2bnd3"
         class="bond"
         x1="32.540001"
         y1="5.1100001"
         x2="28.299999"
         y2="2.6600001" />
      <line
         id="mol2bnd4"
         class="bond"
         x1="25.34"
         y1="2.6600001"
         x2="22.42"
         y2="4.3499999" />
      <path
         id="mol2atm3"
         class="atom"
         d="m 32.53,12.96 q -0.49,0 -0.8,-0.34 -0.3,-0.34 -0.3,-0.91 0,-0.57 0.3,-0.91 0.3,-0.34 0.81,-0.34 0.51,0 0.81,0.34 0.3,0.34 0.3,0.9 0,0.58 -0.3,0.92 -0.3,0.34 -0.82,0.34 z m 0,-0.25 q 0.36,0 0.56,-0.26 0.2,-0.26 0.2,-0.74 0,-0.46 -0.2,-0.73 -0.2,-0.26 -0.56,-0.26 -0.35,0 -0.55,0.26 -0.2,0.26 -0.2,0.73 0,0.46 0.2,0.73 0.2,0.27 0.55,0.27 z"
         inkscape:connector-curvature="0"
         style="stroke:none" />
      <path
         id="mol2atm4"
         class="atom"
         d="m 26.81,3.05 q -0.49,0 -0.8,-0.34 -0.3,-0.34 -0.3,-0.91 0,-0.57 0.3,-0.91 0.3,-0.34 0.81,-0.34 0.51,0 0.81,0.34 0.3,0.34 0.3,0.9 0,0.58 -0.3,0.92 -0.3,0.34 -0.82,0.34 z m 0,-0.25 q 0.36,0 0.56,-0.26 0.2,-0.26 0.2,-0.74 0,-0.46 -0.2,-0.73 -0.2,-0.26 -0.56,-0.26 -0.35,0 -0.55,0.26 -0.2,0.26 -0.2,0.73 0,0.46 0.2,0.73 0.2,0.27 0.55,0.27 z"
         inkscape:connector-curvature="0"
         style="stroke:none" />
      <path
         id="mol2atm5"
         class="atom"
         d="M 20.2,6.3 V 3.92 h 0.34 v 1 h 1.13 v -1 h 0.34 V 6.3 H 21.67 V 5.18 H 20.54 V 6.3 H 20.2 z"
         inkscape:connector-curvature="0"
         style="stroke:none" />
    </g>
    <line
       x1="40.491112"
       y1="7.6211109"
       x2="53.771111"
       y2="7.6211109"
       id="line32"
       style="fill:#000000;stroke:#000000;stroke-width:0.27000001;stroke-linecap:round;stroke-linejoin:round" />
    <path
       d="m 55.661111,7.6211108 -3.79,-1.26 0.76,1.26 -0.76,1.26 z"
       id="path34"
       inkscape:connector-curvature="0"
       style="fill:#000000;stroke:none" />
    <g
       transform="translate(0.81111106,0.86111085)"
       id="mol3"
       class="product mol"
       style="fill:#000000;stroke:#000000;stroke-width:0.23999999;stroke-linecap:round;stroke-linejoin:round">
      <line
         id="mol3bnd1"
         class="bond"
         x1="56.130001"
         y1="1.8099999"
         x2="61.849998"
         y2="5.1100001" />
      <line
         id="mol3bnd2"
         class="bond"
         x1="61.849998"
         y1="5.1100001"
         x2="66.099998"
         y2="2.6600001" />
      <line
         id="mol3bnd3"
         class="bond"
         x1="69.050003"
         y1="2.6600001"
         x2="73.290001"
         y2="5.1100001" />
      <g
         id="mol3bnd4"
         class="bond">
        <line
           x1="73.889999"
           y1="4.77"
           x2="73.889999"
           y2="9.9899998"
           id="line41" />
        <line
           x1="72.699997"
           y1="4.77"
           x2="72.699997"
           y2="9.9899998"
           id="line43" />
      </g>
      <line
         id="mol3bnd5"
         class="bond"
         x1="73.290001"
         y1="5.1100001"
         x2="79.010002"
         y2="1.8099999" />
      <path
         id="mol3atm3"
         class="atom"
         d="m 67.56,3.05 q -0.49,0 -0.8,-0.34 -0.3,-0.34 -0.3,-0.91 0,-0.57 0.3,-0.91 0.3,-0.34 0.81,-0.34 0.51,0 0.81,0.34 0.3,0.34 0.3,0.9 0,0.58 -0.3,0.92 -0.3,0.34 -0.82,0.34 z m 0,-0.25 q 0.36,0 0.56,-0.26 0.2,-0.26 0.2,-0.74 0,-0.46 -0.2,-0.73 -0.2,-0.26 -0.56,-0.26 -0.35,0 -0.55,0.26 -0.2,0.26 -0.2,0.73 0,0.46 0.2,0.73 0.2,0.27 0.55,0.27 z"
         inkscape:connector-curvature="0"
         style="stroke:none" />
      <path
         id="mol3atm5"
         class="atom"
         d="m 73.28,12.96 q -0.49,0 -0.8,-0.34 -0.3,-0.34 -0.3,-0.91 0,-0.57 0.3,-0.91 0.3,-0.34 0.81,-0.34 0.51,0 0.81,0.34 0.3,0.34 0.3,0.9 0,0.58 -0.3,0.92 -0.3,0.34 -0.82,0.34 z m 0,-0.25 q 0.36,0 0.56,-0.26 0.2,-0.26 0.2,-0.74 0,-0.46 -0.2,-0.73 -0.2,-0.26 -0.56,-0.26 -0.35,0 -0.55,0.26 -0.2,0.26 -0.2,0.73 0,0.46 0.2,0.73 0.2,0.27 0.55,0.27 z"
         inkscape:connector-curvature="0"
         style="stroke:none" />
    </g>
    <path
       d="m 82.291111,8.8311108 v -0.83 h -0.83 v -0.24 h 0.83 v -0.83 h 0.24 v 0.83 h 0.83 v 0.24 h -0.83 v 0.83 h -0.24 z"
       id="path48"
       inkscape:connector-curvature="0"
       style="fill:#000000;stroke:none" />
    <g
       transform="translate(0.81111106,0.86111085)"
       id="mol4"
       class="product mol"
       style="fill:#000000;stroke:#000000;stroke-width:0.23999999;stroke-linecap:round;stroke-linejoin:round">
      <g
         id="mol4atm1"
         class="atom">
        <path
           d="m 88.33,7.67 q -0.49,0 -0.8,-0.34 -0.3,-0.34 -0.3,-0.91 0,-0.57 0.3,-0.91 0.3,-0.34 0.81,-0.34 0.51,0 0.81,0.34 0.3,0.34 0.3,0.9 0,0.58 -0.3,0.92 -0.3,0.34 -0.82,0.34 z m 0,-0.25 q 0.36,0 0.56,-0.26 0.2,-0.26 0.2,-0.74 0,-0.46 -0.2,-0.73 -0.2,-0.26 -0.56,-0.26 -0.35,0 -0.55,0.26 -0.2,0.26 -0.2,0.73 0,0.46 0.2,0.73 0.2,0.27 0.55,0.27 z"
           id="path52"
           inkscape:connector-curvature="0"
           style="stroke:none" />
        <path
           d="M 84.03,7.61 V 5.23 h 0.34 v 1 h 1.13 v -1 h 0.34 V 7.61 H 85.5 V 6.49 h -1.13 v 1.12 h -0.34 z"
           id="path54"
           inkscape:connector-curvature="0"
           style="stroke:none" />
        <path
           d="M 86.1,8.34 V 8.17 q 0.08,-0.19 0.33,-0.42 l 0.11,-0.1 q 0.21,-0.19 0.21,-0.38 0,-0.12 -0.07,-0.19 -0.07,-0.07 -0.2,-0.07 -0.15,0 -0.35,0.11 V 6.95 q 0.19,-0.09 0.38,-0.09 0.2,0 0.32,0.11 0.12,0.11 0.12,0.29 0,0.13 -0.06,0.23 -0.06,0.1 -0.23,0.24 l -0.07,0.06 q -0.23,0.19 -0.26,0.37 h 0.62 V 8.33 H 86.1 z"
           id="path56"
           inkscape:connector-curvature="0"
           style="stroke:none" />
      </g>
    </g>
    <g
       transform="translate(0.81111106,0.86111085)"
       id="mol5"
       class="agent mol"
       style="fill:#000000;stroke:#000000;stroke-width:0.23999999;stroke-linecap:round;stroke-linejoin:round">
      <g
         id="mol5atm1"
         class="atom">
        <path
           d="M 45.59,5.64 V 3.26 h 0.34 v 1 h 1.13 v -1 H 47.4 V 5.64 H 47.06 V 4.52 h -1.13 v 1.12 h -0.34 z"
           id="path60"
           inkscape:connector-curvature="0"
           style="stroke:none" />
        <path
           d="m 48.16,3.83 v -0.5 h -0.5 V 3.19 h 0.5 v -0.5 h 0.14 v 0.5 h 0.5 v 0.14 h -0.5 v 0.5 h -0.14 z"
           id="path62"
           inkscape:connector-curvature="0"
           style="stroke:none" />
      </g>
    </g>
  </g>
  <g
     id="g3152"
     transform="translate(-0.27875735,-0.32067108)">
    <g
       transform="translate(18.221454,20.534678)"
       id="mol1-1"
       class="reactant mol"
       style="fill:#000000;stroke-linecap:round;stroke-linejoin:round">
      <path
         style="stroke:none"
         inkscape:connector-curvature="0"
         class="atom"
         d="M 0.56,5.81 V 3.43 H 1.89 V 3.68 H 0.9 V 4.44 H 1.73 V 4.69 H 0.9 V 5.55 H 1.96 V 5.8 H 0.56 z M 2.87,5.85 Q 2.63,5.85 2.5,5.71 2.36,5.57 2.36,5.33 V 4.31 H 2.14 V 4.07 H 2.36 V 3.75 L 2.68,3.72 V 4.07 H 3.14 V 4.31 H 2.68 v 0.96 q 0,0.34 0.3,0.34 0.06,0 0.15,-0.02 V 5.81 Q 2.98,5.85 2.87,5.85 z m 1.66,0.02 q -0.49,0 -0.8,-0.34 -0.3,-0.34 -0.3,-0.91 0,-0.57 0.3,-0.91 0.3,-0.34 0.81,-0.34 0.51,0 0.81,0.34 0.3,0.34 0.3,0.9 0,0.58 -0.3,0.92 -0.3,0.34 -0.82,0.34 z m 0,-0.25 q 0.36,0 0.56,-0.26 0.2,-0.26 0.2,-0.74 0,-0.46 -0.2,-0.73 -0.2,-0.26 -0.56,-0.26 -0.35,0 -0.55,0.26 -0.2,0.26 -0.2,0.73 0,0.46 0.2,0.73 0.2,0.27 0.55,0.27 z m 1.6,0.19 V 3.43 h 0.34 v 1 H 7.6 v -1 H 7.94 V 5.81 H 7.6 V 4.69 H 6.47 V 5.81 H 6.13 z"
         id="path11" />
    </g>
    <path
       style="fill:#000000;stroke:none"
       inkscape:connector-curvature="0"
       d="m 28.461454,26.374678 v -0.83 h -0.83 v -0.24 h 0.83 v -0.83 h 0.24 v 0.83 h 0.83 v 0.24 h -0.83 v 0.83 h -0.24 z"
       id="path13" />
    <g
       transform="translate(18.221454,20.534678)"
       id="mol2-0"
       class="reactant mol"
       style="fill:#000000;stroke-linecap:round;stroke-linejoin:round">
      <path
         style="stroke:none"
         inkscape:connector-curvature="0"
         class="atom"
         d="m 14.27,4.91 -0.4,-1.02 -0.41,1.02 h 0.81 z m 0.35,0.9 -0.26,-0.66 h -1.01 l -0.26,0.66 h -0.31 l 0.94,-2.38 h 0.34 l 0.93,2.38 h -0.37 z m 1.4,0.04 q -0.35,0 -0.59,-0.26 -0.23,-0.26 -0.23,-0.66 0,-0.43 0.23,-0.66 0.23,-0.24 0.64,-0.24 0.21,0 0.45,0.06 v 0.26 q -0.26,-0.08 -0.43,-0.08 -0.24,0 -0.39,0.18 -0.15,0.18 -0.15,0.48 0,0.3 0.15,0.48 0.15,0.18 0.39,0.18 0.22,0 0.45,-0.11 v 0.27 q -0.3,0.09 -0.53,0.09 z m 1.96,0.02 q -0.49,0 -0.8,-0.34 -0.3,-0.34 -0.3,-0.91 0,-0.57 0.3,-0.91 0.3,-0.34 0.81,-0.34 0.51,0 0.81,0.34 0.3,0.34 0.3,0.9 0,0.58 -0.3,0.92 -0.3,0.34 -0.82,0.34 z m 0,-0.25 q 0.36,0 0.56,-0.26 0.2,-0.26 0.2,-0.74 0,-0.46 -0.2,-0.73 -0.2,-0.26 -0.56,-0.26 -0.35,0 -0.55,0.26 -0.2,0.26 -0.2,0.73 0,0.46 0.2,0.73 0.2,0.27 0.55,0.27 z m 1.6,0.19 V 3.43 h 0.34 v 1 h 1.13 v -1 h 0.34 V 5.81 H 21.05 V 4.69 h -1.13 v 1.12 h -0.34 z"
         id="path16-7" />
    </g>
    <line
       style="fill:#000000;stroke:#000000;stroke-width:0.27000001;stroke-linecap:round;stroke-linejoin:round"
       x1="40.851452"
       y1="25.16468"
       x2="54.131454"
       y2="25.16468"
       id="line18" />
    <path
       style="fill:#000000;stroke:none"
       inkscape:connector-curvature="0"
       d="m 56.031454,25.164678 -3.79,-1.26 0.76,1.26 -0.76,1.26 z"
       id="path20" />
    <g
       transform="translate(18.221454,20.534678)"
       id="mol3-1"
       class="product mol"
       style="fill:#000000;stroke-linecap:round;stroke-linejoin:round">
      <path
         style="stroke:none"
         inkscape:connector-curvature="0"
         class="atom"
         d="M 38.93,5.81 V 3.43 h 1.33 v 0.25 h -0.99 v 0.76 h 0.83 v 0.25 h -0.83 v 0.86 h 1.06 V 5.8 h -1.4 z m 2.31,0.04 Q 41,5.85 40.87,5.71 40.73,5.57 40.73,5.33 V 4.31 H 40.51 V 4.07 h 0.22 V 3.75 l 0.32,-0.03 v 0.35 h 0.46 v 0.24 h -0.46 v 0.96 q 0,0.34 0.3,0.34 0.06,0 0.15,-0.02 v 0.22 q -0.15,0.04 -0.26,0.04 z m 1.66,0.02 q -0.49,0 -0.8,-0.34 -0.3,-0.34 -0.3,-0.91 0,-0.57 0.3,-0.91 0.3,-0.34 0.81,-0.34 0.51,0 0.81,0.34 0.3,0.34 0.3,0.9 0,0.58 -0.3,0.92 -0.3,0.34 -0.82,0.34 z m 0,-0.25 q 0.36,0 0.56,-0.26 0.2,-0.26 0.2,-0.74 0,-0.46 -0.2,-0.73 -0.2,-0.26 -0.56,-0.26 -0.35,0 -0.55,0.26 -0.2,0.26 -0.2,0.73 0,0.46 0.2,0.73 0.2,0.27 0.55,0.27 z M 45.7,4.91 45.3,3.89 44.89,4.91 h 0.81 z m 0.35,0.9 -0.26,-0.66 h -1.01 l -0.26,0.66 h -0.31 l 0.94,-2.38 h 0.34 l 0.93,2.38 h -0.37 z m 1.4,0.04 q -0.35,0 -0.59,-0.26 -0.23,-0.26 -0.23,-0.66 0,-0.43 0.23,-0.66 0.23,-0.24 0.64,-0.24 0.21,0 0.45,0.06 v 0.26 q -0.26,-0.08 -0.43,-0.08 -0.24,0 -0.39,0.18 -0.15,0.18 -0.15,0.48 0,0.3 0.15,0.48 0.15,0.18 0.39,0.18 0.22,0 0.45,-0.11 v 0.27 q -0.3,0.09 -0.53,0.09 z"
         id="path23" />
    </g>
    <path
       style="fill:#000000;stroke:none"
       inkscape:connector-curvature="0"
       d="m 68.511454,26.374678 v -0.83 h -0.83 v -0.24 h 0.83 v -0.83 h 0.24 v 0.83 h 0.83 v 0.24 h -0.83 v 0.83 h -0.24 z"
       id="path25" />
    <g
       transform="translate(18.221454,20.534678)"
       id="mol4-4"
       class="product mol"
       style="fill:#000000;stroke-linecap:round;stroke-linejoin:round">
      <g
         id="mol4atm1-0"
         class="atom">
        <path
           style="stroke:none"
           inkscape:connector-curvature="0"
           d="m 57.14,5.54 q -0.49,0 -0.8,-0.34 -0.3,-0.34 -0.3,-0.91 0,-0.57 0.3,-0.91 0.3,-0.34 0.81,-0.34 0.51,0 0.81,0.34 0.3,0.34 0.3,0.9 0,0.58 -0.3,0.92 -0.3,0.34 -0.82,0.34 z m 0,-0.25 q 0.36,0 0.56,-0.26 0.2,-0.26 0.2,-0.74 0,-0.46 -0.2,-0.73 -0.2,-0.26 -0.56,-0.26 -0.35,0 -0.55,0.26 -0.2,0.26 -0.2,0.73 0,0.46 0.2,0.73 0.2,0.27 0.55,0.27 z"
           id="path29" />
        <path
           style="stroke:none"
           inkscape:connector-curvature="0"
           d="M 52.84,5.48 V 3.1 h 0.34 v 1 h 1.13 v -1 h 0.34 V 5.48 H 54.31 V 4.36 h -1.13 v 1.12 h -0.34 z"
           id="path31" />
        <path
           style="stroke:none"
           inkscape:connector-curvature="0"
           d="M 54.91,6.21 V 6.04 q 0.08,-0.19 0.33,-0.42 l 0.11,-0.1 q 0.21,-0.19 0.21,-0.38 0,-0.12 -0.07,-0.19 -0.07,-0.07 -0.2,-0.07 -0.15,0 -0.35,0.11 V 4.82 q 0.19,-0.09 0.38,-0.09 0.2,0 0.32,0.11 0.12,0.11 0.12,0.29 0,0.13 -0.06,0.23 -0.06,0.1 -0.23,0.24 L 55.4,5.66 q -0.23,0.19 -0.26,0.37 h 0.62 V 6.2 h -0.85 z"
           id="path33" />
      </g>
    </g>
    <g
       transform="translate(18.221454,20.534678)"
       id="mol5-2"
       class="agent mol"
       style="fill:#000000;stroke-linecap:round;stroke-linejoin:round">
      <g
         id="mol5atm1-6"
         class="atom">
        <path
           style="stroke:none"
           inkscape:connector-curvature="0"
           d="M 28.55,3.51 V 1.13 h 0.34 v 1 h 1.13 v -1 h 0.34 V 3.51 H 30.02 V 2.39 h -1.13 v 1.12 h -0.34 z"
           id="path37" />
        <path
           style="stroke:none"
           inkscape:connector-curvature="0"
           d="M 31.12,1.7 V 1.2 h -0.5 V 1.06 h 0.5 v -0.5 h 0.14 v 0.5 h 0.5 V 1.2 h -0.5 v 0.5 h -0.14 z"
           id="path39" />
      </g>
    </g>
  </g>
  <text
     xml:space="preserve"
     style="font-size:3.38666654px;font-style:normal;font-weight:normal;line-height:125%;letter-spacing:0px;word-spacing:0px;fill:#000000;fill-opacity:1;stroke:none;font-family:Sans"
     x="31.672827"
     y="18.504814"
     id="text3214"
     sodipodi:linespacing="125%"><tspan
       sodipodi:role="line"
       id="tspan3216"
       x="31.672827"
       y="18.504814"
       style="font-size:2.25777769px;fill:#ff0000">a) Abbreviations expanded</tspan></text>
  <text
     sodipodi:linespacing="125%"
     id="text3218"
     y="34.593193"
     x="31.603374"
     style="font-size:3.38666654px;font-style:normal;font-weight:normal;line-height:125%;letter-spacing:0px;word-spacing:0px;fill:#000000;fill-opacity:1;stroke:none;font-family:Sans"
     xml:space="preserve"><tspan
       style="font-size:2.25777769px;fill:#ff0000"
       y="34.593193"
       x="31.603374"
       id="tspan3220"
       sodipodi:role="line">b) Abbreviations contracted</tspan></text>
  <g
     transform="translate(94.280212,0.85111075)"
     id="g3134">
    <g
       id="mol1-5"
       class="mol"
       style="fill:#000000;stroke:#000000;stroke-width:0.23999999;stroke-linecap:round;stroke-linejoin:round">
      <line
         id="mol1bnd1-1"
         class="bond"
         x1="40.349998"
         y1="25.540001"
         x2="36.75"
         y2="25.129999" />
      <g
         id="mol1bnd2-6"
         class="bond">
        <line
           x1="32.650002"
           y1="18.84"
           x2="32.43"
           y2="18.93"
           id="line13" />
        <line
           x1="33.099998"
           y1="19.67"
           x2="32.73"
           y2="19.83"
           id="line15" />
        <line
           x1="33.560001"
           y1="20.5"
           x2="33.029999"
           y2="20.73"
           id="line17" />
        <line
           x1="34.009998"
           y1="21.33"
           x2="33.32"
           y2="21.629999"
           id="line19" />
        <line
           x1="34.459999"
           y1="22.17"
           x2="33.619999"
           y2="22.530001"
           id="line21" />
        <line
           x1="34.91"
           y1="23"
           x2="33.919998"
           y2="23.43"
           id="line23-6" />
      </g>
      <line
         id="mol1bnd3"
         class="bond"
         x1="32.540001"
         y1="18.879999"
         x2="35.889999"
         y2="13.09" />
      <line
         id="mol1bnd4"
         class="bond"
         x1="35.889999"
         y1="13.09"
         x2="31.49"
         y2="8.21" />
      <path
         id="mol1bnd5"
         class="bond"
         d="M 31.37,8.18 31.6,8.23 33.05,3.51 32.5,3.39 31.95,3.27 z"
         inkscape:connector-curvature="0"
         style="stroke:none" />
      <line
         id="mol1bnd6"
         class="bond"
         x1="31.49"
         y1="8.21"
         x2="27.07"
         y2="10.18" />
      <line
         id="mol1bnd7"
         class="bond"
         x1="25.700001"
         y1="12.59"
         x2="26.18"
         y2="17.4" />
      <line
         id="mol1bnd8"
         class="bond"
         x1="32.540001"
         y1="18.879999"
         x2="26.18"
         y2="17.4" />
      <path
         id="mol1bnd9"
         class="bond"
         d="m 26.26,17.49 -0.16,-0.18 -5.81,4.26 0.82,0.28 0.74,0.25 z"
         inkscape:connector-curvature="0"
         style="stroke:none" />
      <line
         id="mol1bnd10"
         class="bond"
         x1="21.219999"
         y1="21.75"
         x2="16.530001"
         y2="20.17" />
      <line
         id="mol1bnd11"
         class="bond"
         x1="13.7"
         y1="20.74"
         x2="11.08"
         y2="23.040001" />
      <line
         id="mol1bnd12"
         class="bond"
         x1="8.8299999"
         y1="23.59"
         x2="5.3099999"
         y2="22.4" />
      <line
         id="mol1bnd13"
         class="bond"
         x1="9.1199999"
         y1="25.6"
         x2="7.6700001"
         y2="28.24" />
      <g
         id="mol1bnd14"
         class="bond">
        <line
           x1="11.09"
           y1="24.1"
           x2="14.21"
           y2="26.610001"
           id="line37" />
        <line
           x1="10.35"
           y1="25.030001"
           x2="13.47"
           y2="27.530001"
           id="line39" />
      </g>
      <path
         id="mol1atm1"
         class="atom"
         d="m 40.83,26.89 v -2.38 h 0.34 v 1 h 1.13 v -1 h 0.34 v 2.38 H 42.3 v -1.12 h -1.13 v 1.12 h -0.34 z"
         inkscape:connector-curvature="0"
         style="stroke:none" />
      <path
         id="mol1atm2"
         class="atom"
         d="m 35.15,26.19 q -0.49,0 -0.8,-0.34 -0.3,-0.34 -0.3,-0.91 0,-0.57 0.3,-0.91 0.3,-0.34 0.81,-0.34 0.51,0 0.81,0.34 0.3,0.34 0.3,0.9 0,0.58 -0.3,0.92 -0.3,0.34 -0.82,0.34 z m 0.01,-0.25 q 0.36,0 0.56,-0.26 0.2,-0.26 0.2,-0.74 0,-0.46 -0.2,-0.73 -0.2,-0.26 -0.56,-0.26 -0.35,0 -0.55,0.26 -0.2,0.26 -0.2,0.73 0,0.46 0.2,0.73 0.2,0.27 0.55,0.27 z"
         inkscape:connector-curvature="0"
         style="stroke:none" />
      <path
         id="mol1atm6"
         class="atom"
         d="m 31.96,2.94 0.42,-2.38 h 0.72 q 0.34,0 0.5,0.15 0.16,0.15 0.1,0.44 -0.08,0.47 -0.6,0.67 l 0.6,1.11 h -0.42 l -0.5,-1 h -0.32 l -0.18,1 h -0.33 z m 0.55,-1.26 h 0.11 q 0.64,0 0.72,-0.5 0.06,-0.37 -0.47,-0.37 h -0.21 l -0.15,0.87 z"
         inkscape:connector-curvature="0"
         style="stroke:none" />
      <path
         id="mol1atm7"
         class="atom"
         d="m 25.51,12.12 q -0.49,0 -0.8,-0.34 -0.3,-0.34 -0.3,-0.91 0,-0.57 0.3,-0.91 0.3,-0.34 0.81,-0.34 0.51,0 0.81,0.34 0.3,0.34 0.3,0.9 0,0.58 -0.3,0.92 -0.3,0.34 -0.82,0.34 z m 0.01,-0.26 q 0.36,0 0.56,-0.26 0.2,-0.26 0.2,-0.74 0,-0.46 -0.2,-0.73 -0.2,-0.26 -0.56,-0.26 -0.35,0 -0.55,0.26 -0.2,0.26 -0.2,0.73 0,0.46 0.2,0.73 0.2,0.27 0.55,0.27 z"
         inkscape:connector-curvature="0"
         style="stroke:none" />
      <path
         id="mol1atm10"
         class="atom"
         d="m 14.95,20.88 q -0.49,0 -0.8,-0.34 -0.3,-0.34 -0.3,-0.91 0,-0.57 0.3,-0.91 0.3,-0.34 0.81,-0.34 0.51,0 0.81,0.34 0.3,0.34 0.3,0.9 0,0.58 -0.3,0.92 -0.3,0.34 -0.82,0.34 z m 0,-0.25 q 0.36,0 0.56,-0.26 0.2,-0.26 0.2,-0.74 0,-0.46 -0.2,-0.73 -0.2,-0.26 -0.56,-0.26 -0.35,0 -0.55,0.26 -0.2,0.26 -0.2,0.73 0,0.46 0.2,0.73 0.2,0.27 0.55,0.27 z"
         inkscape:connector-curvature="0"
         style="stroke:none" />
      <path
         id="mol1atm11"
         class="atom"
         d="M 9.28,25.18 V 22.8 h 0.64 q 0.43,0 0.62,0.14 0.19,0.14 0.19,0.48 0,0.38 -0.26,0.6 -0.26,0.22 -0.71,0.22 H 9.61 v 0.94 H 9.28 z m 0.33,-1.2 h 0.14 q 0.3,0 0.46,-0.14 0.16,-0.14 0.16,-0.39 0,-0.21 -0.13,-0.3 -0.13,-0.09 -0.43,-0.09 H 9.6 v 0.93 z"
         inkscape:connector-curvature="0"
         style="stroke:none" />
      <g
         id="mol1atm12"
         class="atom">
        <path
           d="m 3.73,23.12 q -0.49,0 -0.8,-0.34 -0.3,-0.34 -0.3,-0.91 0,-0.57 0.3,-0.91 0.3,-0.34 0.81,-0.34 0.51,0 0.81,0.34 0.3,0.34 0.3,0.9 0,0.58 -0.3,0.92 -0.3,0.34 -0.82,0.34 z m 0.01,-0.25 q 0.36,0 0.56,-0.26 0.2,-0.26 0.2,-0.74 0,-0.46 -0.2,-0.73 -0.2,-0.26 -0.56,-0.26 -0.35,0 -0.55,0.26 -0.2,0.26 -0.2,0.73 0,0.46 0.2,0.73 0.2,0.27 0.55,0.27 z"
           id="path48-9"
           inkscape:connector-curvature="0"
           style="stroke:none" />
        <path
           d="M 0.56,23.06 V 20.68 H 0.9 v 1 h 1.13 v -1 h 0.34 v 2.38 H 2.03 V 21.94 H 0.9 v 1.12 H 0.56 z"
           id="path50"
           inkscape:connector-curvature="0"
           style="stroke:none" />
      </g>
      <g
         id="mol1atm13"
         class="atom">
        <path
           d="m 6.81,31.03 q -0.49,0 -0.8,-0.34 -0.3,-0.34 -0.3,-0.91 0,-0.57 0.3,-0.91 0.3,-0.34 0.81,-0.34 0.51,0 0.81,0.34 0.3,0.34 0.3,0.9 0,0.58 -0.3,0.92 -0.3,0.34 -0.82,0.34 z m 0.01,-0.25 q 0.36,0 0.56,-0.26 0.2,-0.26 0.2,-0.74 0,-0.46 -0.2,-0.73 -0.2,-0.26 -0.56,-0.26 -0.35,0 -0.55,0.26 -0.2,0.26 -0.2,0.73 0,0.46 0.2,0.73 0.2,0.27 0.55,0.27 z"
           id="path53"
           inkscape:connector-curvature="0"
           style="stroke:none" />
        <path
           d="m 3.64,30.97 v -2.38 h 0.34 v 1 h 1.13 v -1 h 0.34 v 2.38 H 5.11 V 29.85 H 3.98 v 1.12 H 3.64 z"
           id="path55"
           inkscape:connector-curvature="0"
           style="stroke:none" />
      </g>
      <path
         id="mol1atm14"
         class="atom"
         d="m 15.14,29.37 q -0.49,0 -0.8,-0.34 -0.3,-0.34 -0.3,-0.91 0,-0.57 0.3,-0.91 0.3,-0.34 0.81,-0.34 0.51,0 0.81,0.34 0.3,0.34 0.3,0.9 0,0.58 -0.3,0.92 -0.3,0.34 -0.82,0.34 z m 0,-0.25 q 0.36,0 0.56,-0.26 0.2,-0.26 0.2,-0.74 0,-0.46 -0.2,-0.73 -0.2,-0.26 -0.56,-0.26 -0.35,0 -0.55,0.26 -0.2,0.26 -0.2,0.73 0,0.46 0.2,0.73 0.2,0.27 0.55,0.27 z"
         inkscape:connector-curvature="0"
         style="stroke:none" />
      <path
         d="m 37.26,22.35 h 1.19 v 5.94 h -1.19"
         id="path58"
         inkscape:connector-curvature="0"
         style="fill:none;stroke:#000000;stroke-width:0.23999999" />
      <path
         d="M 8.06,19.96 H 6.87 v 5.94 h 1.19"
         id="path60-1"
         inkscape:connector-curvature="0"
         style="fill:none;stroke:#000000;stroke-width:0.23999999" />
      <path
         d="m 39.21,28.83 v -1.05 h 0.19 v 0.2 q 0.15,-0.22 0.37,-0.22 0.14,0 0.22,0.09 0.08,0.09 0.08,0.23 v 0.75 h -0.19 v -0.69 q 0,-0.12 -0.03,-0.17 -0.03,-0.05 -0.11,-0.05 -0.18,0 -0.33,0.23 v 0.68 h -0.19 z"
         id="path62-5"
         inkscape:connector-curvature="0"
         style="stroke:none" />
    </g>
  </g>
  <text
     xml:space="preserve"
     style="font-size:3.38666654px;font-style:normal;font-weight:normal;line-height:125%;letter-spacing:0px;word-spacing:0px;fill:#000000;fill-opacity:1;stroke:none;font-family:Sans"
     x="102.57001"
     y="34.421215"
     id="text3307"
     sodipodi:linespacing="125%"><tspan
       sodipodi:role="line"
       id="tspan3309"
       x="102.57001"
       y="34.421215"
       style="font-size:2.25777769px;fill:#ff0000">c) Structure repeat unit</tspan></text>
</svg>
