<?xml version="1.0" encoding="UTF-8" standalone="no"?>
<svg
   xmlns:dc="http://purl.org/dc/elements/1.1/"
   xmlns:cc="http://creativecommons.org/ns#"
   xmlns:rdf="http://www.w3.org/1999/02/22-rdf-syntax-ns#"
   xmlns:svg="http://www.w3.org/2000/svg"
   xmlns="http://www.w3.org/2000/svg"
   xmlns:sodipodi="http://sodipodi.sourceforge.net/DTD/sodipodi-0.dtd"
   xmlns:inkscape="http://www.inkscape.org/namespaces/inkscape"
   version="1.2"
   width="274.065"
   height="169.33231"
   viewBox="0 0 77.347232 47.789337"
   id="svg2"
   inkscape:version="0.48.5 r10040"
   sodipodi:docname="stereodesc.svg">
  <metadata
     id="metadata111">
    <rdf:RDF>
      <cc:Work
         rdf:about="">
        <dc:format>image/svg+xml</dc:format>
        <dc:type
           rdf:resource="http://purl.org/dc/dcmitype/StillImage" />
        <dc:title></dc:title>
      </cc:Work>
    </rdf:RDF>
  </metadata>
  <defs
     id="defs109" />
  <sodipodi:namedview
     pagecolor="#ffffff"
     bordercolor="#666666"
     borderopacity="1"
     objecttolerance="10"
     gridtolerance="10"
     guidetolerance="10"
     inkscape:pageopacity="0"
     inkscape:pageshadow="2"
     inkscape:window-width="1406"
     inkscape:window-height="858"
     id="namedview107"
     showgrid="false"
     inkscape:zoom="1.8101934"
     inkscape:cx="166.34944"
     inkscape:cy="63.969962"
     inkscape:window-x="0"
     inkscape:window-y="0"
     inkscape:window-maximized="0"
     inkscape:current-layer="svg2"
     fit-margin-top="5"
     fit-margin-bottom="5"
     fit-margin-right="5"
     fit-margin-left="5" />
  <desc
     id="desc4">Generated by the Chemistry Development Kit (http://github.com/cdk)</desc>
  <g
     id="g3256"
     transform="translate(3.6135592,3.7072198)">
    <line
       y2="6.71"
       x2="6.3000002"
       y1="4.1700001"
       x1="1.9"
       class="bond"
       id="mol1bnd1"
       style="fill:#ff0000;stroke:#444444;stroke-width:0.18000001;stroke-linecap:round;stroke-linejoin:round" />
    <path
       style="fill:#444444;stroke:none"
       inkscape:connector-curvature="0"
       d="M 6.37,6.77 6.23,6.65 3.64,9.22 3.96,9.49 4.28,9.76 z"
       class="bond"
       id="mol1bnd2" />
    <line
       y2="9.6000004"
       x2="8.7299995"
       y1="6.71"
       x1="6.3000002"
       class="bond"
       id="mol1bnd3"
       style="fill:#ff0000;stroke:#444444;stroke-width:0.18000001;stroke-linecap:round;stroke-linejoin:round" />
    <line
       y2="4.1700001"
       x2="10.7"
       y1="6.71"
       x1="6.3000002"
       class="bond"
       id="mol1bnd4"
       style="fill:#ff0000;stroke:#444444;stroke-width:0.18000001;stroke-linecap:round;stroke-linejoin:round" />
    <line
       y2="6.71"
       x2="15.1"
       y1="4.1700001"
       x1="10.7"
       class="bond"
       id="mol1bnd5"
       style="fill:#ff0000;stroke:#444444;stroke-width:0.18000001;stroke-linecap:round;stroke-linejoin:round" />
    <path
       style="fill:#444444;stroke:none"
       inkscape:connector-curvature="0"
       d="M 2.34,11.52 V 9.69 H 2.6 v 0.77 H 3.47 V 9.69 h 0.26 v 1.83 H 3.47 V 10.66 H 2.6 v 0.86 z"
       class="atom"
       id="mol1atm3" />
    <g
       class="atom"
       id="mol1atm4"
       style="fill:#ff0000;stroke:#444444;stroke-width:0.18000001;stroke-linecap:round;stroke-linejoin:round">
      <path
         style="fill:#444444;stroke:none"
         inkscape:connector-curvature="0"
         id="path57"
         d="m 9.56,11.56 q -0.38,0 -0.61,-0.26 -0.23,-0.26 -0.23,-0.7 0,-0.44 0.23,-0.7 0.23,-0.26 0.62,-0.26 0.39,0 0.62,0.26 0.23,0.26 0.23,0.7 0,0.44 -0.23,0.7 -0.23,0.26 -0.63,0.26 z m 0,-0.19 q 0.28,0 0.43,-0.2 0.15,-0.2 0.15,-0.57 0,-0.36 -0.15,-0.56 -0.15,-0.2 -0.43,-0.2 -0.27,0 -0.43,0.2 -0.15,0.2 -0.15,0.56 0,0.36 0.15,0.56 0.15,0.21 0.42,0.21 z" />
      <path
         style="fill:#444444;stroke:none"
         inkscape:connector-curvature="0"
         id="path59"
         d="M 10.63,11.52 V 9.69 h 0.26 v 0.77 h 0.87 V 9.69 h 0.26 v 1.83 h -0.26 v -0.86 h -0.87 v 0.86 z" />
    </g>
    <path
       style="fill:#ff0000;stroke:none"
       inkscape:connector-curvature="0"
       id="path69"
       d="M 0.56,4 V 3.91 H 0.74 V 3.19 L 0.56,3.24 V 3.15 L 0.87,3.07 v 0.85 h 0.18 v 0.09 z" />
    <path
       style="fill:#ff0000;stroke:none"
       inkscape:connector-curvature="0"
       id="path71"
       d="M 6.03,5.91 V 5.8 Q 6.08,5.68 6.24,5.53 L 6.31,5.47 Q 6.44,5.35 6.44,5.23 6.44,5.15 6.39,5.11 6.34,5.07 6.26,5.07 6.16,5.07 6.04,5.14 V 5.03 Q 6.16,4.97 6.28,4.97 6.41,4.97 6.49,5.04 6.57,5.11 6.57,5.22 6.57,5.3 6.53,5.37 6.49,5.43 6.38,5.52 L 6.33,5.56 Q 6.18,5.68 6.16,5.8 h 0.4 v 0.11 z" />
    <path
       style="fill:#ff0000;stroke:none"
       inkscape:connector-curvature="0"
       id="path73"
       d="M 10.45,5.89 V 5.78 q 0.09,0.04 0.17,0.04 0.09,0 0.14,-0.05 0.05,-0.05 0.05,-0.15 0,-0.21 -0.28,-0.21 -0.03,0 -0.07,0 V 4.97 h 0.46 v 0.11 h -0.36 v 0.24 q 0.18,0 0.27,0.08 0.1,0.08 0.1,0.22 0,0.13 -0.09,0.21 -0.09,0.08 -0.25,0.08 -0.07,0 -0.16,-0.02 z" />
    <path
       style="fill:#ff0000;stroke:none"
       inkscape:connector-curvature="0"
       id="path75"
       d="m 16.02,7.33 q 0.09,-0.11 0.22,-0.11 0.12,0 0.2,0.08 0.08,0.08 0.08,0.2 0,0.14 -0.09,0.23 -0.09,0.09 -0.22,0.09 -0.15,0 -0.24,-0.12 -0.09,-0.12 -0.09,-0.34 0,-0.24 0.1,-0.37 0.1,-0.13 0.28,-0.13 0.08,0 0.2,0.03 V 7 q -0.13,-0.05 -0.21,-0.05 -0.23,0 -0.23,0.37 z m 0.37,0.2 q 0,-0.1 -0.05,-0.16 -0.05,-0.06 -0.13,-0.06 -0.08,0 -0.13,0.05 -0.06,0.05 -0.06,0.12 0,0.11 0.05,0.18 0.05,0.07 0.14,0.07 0.08,0 0.13,-0.06 0.05,-0.06 0.05,-0.15 z" />
    <path
       style="fill:#ff0000;stroke:none"
       inkscape:connector-curvature="0"
       id="path95"
       d="m 1.32,12.78 v -0.11 q 0.13,0.05 0.21,0.05 0.09,0 0.14,-0.05 0.05,-0.05 0.05,-0.13 0,-0.19 -0.27,-0.19 H 1.4 v -0.08 h 0.04 q 0.25,0 0.25,-0.18 0,-0.14 -0.17,-0.14 -0.09,0 -0.2,0.05 v -0.11 q 0.11,-0.04 0.21,-0.04 0.28,0 0.28,0.21 0,0.16 -0.19,0.23 0.22,0.05 0.22,0.24 0,0.13 -0.09,0.2 -0.09,0.07 -0.23,0.07 -0.08,0 -0.21,-0.03 z"
       class="annotation" />
    <path
       style="fill:#ff0000;stroke:none"
       inkscape:connector-curvature="0"
       id="path97"
       d="M 8.73,13.05 V 12.79 H 8.32 V 12.7 l 0.41,-0.56 h 0.11 v 0.56 h 0.12 v 0.1 H 8.84 v 0.26 z M 8.44,12.69 h 0.3 v -0.41 z"
       class="annotation" />
  </g>
  <g
     id="g3238"
     transform="translate(-17.378889,18.533137)">
    <line
       y2="6.1199999"
       x2="24.58"
       y1="3.5799999"
       x1="20.18"
       class="bond"
       id="mol1bnd6"
       style="fill:#ff0000;stroke:#444444;stroke-width:0.18000001;stroke-linecap:round;stroke-linejoin:round" />
    <line
       y2="3.5799999"
       x2="28.98"
       y1="6.1199999"
       x1="24.58"
       class="bond"
       id="mol1bnd7"
       style="fill:#ff0000;stroke:#444444;stroke-width:0.18000001;stroke-linecap:round;stroke-linejoin:round" />
    <g
       class="bond"
       id="mol1bnd8"
       style="fill:#ff0000;stroke:#444444;stroke-width:0.18000001;stroke-linecap:round;stroke-linejoin:round">
      <line
         id="line19"
         y2="6.1199999"
         x2="33.380001"
         y1="3.5799999"
         x1="28.98" />
      <line
         id="line21"
         y2="6.6399999"
         x2="32.470001"
         y1="4.6300001"
         x1="28.98" />
    </g>
    <line
       y2="3.5799999"
       x2="37.779999"
       y1="6.1199999"
       x1="33.380001"
       class="bond"
       id="mol1bnd9"
       style="fill:#ff0000;stroke:#444444;stroke-width:0.18000001;stroke-linecap:round;stroke-linejoin:round" />
    <line
       y2="9.8699999"
       x2="33.380001"
       y1="6.1199999"
       x1="33.380001"
       class="bond"
       id="mol1bnd10"
       style="fill:#ff0000;stroke:#444444;stroke-width:0.18000001;stroke-linecap:round;stroke-linejoin:round" />
    <g
       class="atom"
       id="mol1atm12"
       style="fill:#ff0000;stroke:#444444;stroke-width:0.18000001;stroke-linecap:round;stroke-linejoin:round">
      <path
         style="fill:#444444;stroke:none"
         inkscape:connector-curvature="0"
         id="path62"
         d="m 33.37,12.16 q -0.38,0 -0.61,-0.26 -0.23,-0.26 -0.23,-0.7 0,-0.44 0.23,-0.7 0.23,-0.26 0.62,-0.26 0.39,0 0.62,0.26 0.23,0.26 0.23,0.7 0,0.44 -0.23,0.7 -0.23,0.26 -0.63,0.26 z m 0,-0.2 q 0.28,0 0.43,-0.2 0.15,-0.2 0.15,-0.57 0,-0.36 -0.15,-0.56 -0.15,-0.2 -0.43,-0.2 -0.27,0 -0.43,0.2 -0.15,0.2 -0.15,0.56 0,0.36 0.15,0.56 0.15,0.21 0.42,0.21 z" />
      <path
         style="fill:#444444;stroke:none"
         inkscape:connector-curvature="0"
         id="path64"
         d="m 34.44,12.11 v -1.83 h 0.26 v 0.77 h 0.87 v -0.77 h 0.26 v 1.83 H 35.57 V 11.25 H 34.7 v 0.86 z" />
    </g>
    <path
       style="fill:#ff0000;stroke:none"
       inkscape:connector-curvature="0"
       id="path77"
       d="m 18.84,3.4 q 0.02,-0.11 0.05,-0.18 0.03,-0.08 0.12,-0.21 l 0.25,-0.4 H 18.79 V 2.5 h 0.59 v 0.11 q -0.35,0.52 -0.39,0.8 z" />
    <path
       style="fill:#ff0000;stroke:none"
       inkscape:connector-curvature="0"
       id="path79"
       d="M 24.46,4.81 Q 24.33,4.72 24.33,4.6 q 0,-0.1 0.08,-0.17 0.08,-0.06 0.2,-0.06 0.11,0 0.18,0.05 0.07,0.05 0.07,0.14 0,0.13 -0.17,0.24 0.21,0.1 0.21,0.26 0,0.11 -0.09,0.19 -0.09,0.07 -0.22,0.07 -0.13,0 -0.22,-0.07 -0.08,-0.07 -0.08,-0.18 0,-0.16 0.18,-0.27 z m 0.15,-0.04 q 0.13,-0.08 0.13,-0.19 0,-0.05 -0.04,-0.09 -0.04,-0.03 -0.11,-0.03 -0.07,0 -0.11,0.03 -0.04,0.03 -0.04,0.09 0,0.05 0.04,0.09 0.04,0.04 0.14,0.1 z m -0.09,0.08 q -0.07,0.06 -0.1,0.1 -0.03,0.04 -0.03,0.11 0,0.08 0.05,0.13 0.05,0.05 0.13,0.05 0.08,0 0.13,-0.04 Q 24.75,5.16 24.75,5.09 24.75,5.04 24.72,5 24.69,4.96 24.6,4.91 z" />
    <path
       style="fill:#ff0000;stroke:none"
       inkscape:connector-curvature="0"
       id="path81"
       d="m 28.72,2.76 v -0.1 q 0.12,0.04 0.2,0.04 0.11,0 0.18,-0.1 0.06,-0.1 0.06,-0.27 -0.09,0.11 -0.21,0.11 -0.12,0 -0.2,-0.08 -0.08,-0.08 -0.08,-0.21 0,-0.14 0.09,-0.23 0.09,-0.09 0.22,-0.09 0.15,0 0.23,0.12 0.09,0.12 0.09,0.33 0,0.24 -0.1,0.37 -0.1,0.14 -0.28,0.14 -0.07,0 -0.19,-0.03 z m 0.07,-0.63 q 0,0.11 0.05,0.17 0.05,0.06 0.13,0.06 0.08,0 0.13,-0.05 0.05,-0.05 0.05,-0.13 0,-0.12 -0.05,-0.19 -0.05,-0.07 -0.14,-0.07 -0.08,0 -0.13,0.06 -0.05,0.06 -0.05,0.15 z" />
    <path
       style="fill:#ff0000;stroke:none"
       inkscape:connector-curvature="0"
       id="path83"
       d="M 34.24,7.22 V 7.13 h 0.18 V 6.41 L 34.24,6.46 V 6.37 l 0.31,-0.08 v 0.85 h 0.18 v 0.09 z m 1,0.02 q -0.14,0 -0.23,-0.13 -0.09,-0.13 -0.09,-0.35 0,-0.22 0.09,-0.35 0.09,-0.13 0.23,-0.13 0.14,0 0.23,0.13 0.09,0.13 0.09,0.35 0,0.22 -0.09,0.35 -0.09,0.13 -0.24,0.13 z m 0,-0.09 q 0.19,0 0.19,-0.39 0,-0.38 -0.19,-0.38 -0.19,0 -0.19,0.39 0,0.39 0.19,0.39 z" />
    <path
       style="fill:#ff0000;stroke:none"
       inkscape:connector-curvature="0"
       id="path85"
       d="M 38.64,3.41 V 3.32 h 0.18 V 2.6 L 38.64,2.65 V 2.56 l 0.31,-0.08 v 0.85 h 0.18 v 0.09 z m 0.8,0 V 3.32 h 0.18 V 2.6 L 39.44,2.65 V 2.56 l 0.31,-0.08 v 0.85 h 0.18 v 0.09 z" />
    <path
       style="fill:#ff0000;stroke:none"
       inkscape:connector-curvature="0"
       id="path99"
       d="m 30.9,13.16 v -0.09 h 0.18 V 12.35 L 30.9,12.4 v -0.09 l 0.31,-0.08 v 0.85 h 0.18 v 0.09 z m 0.72,0 v -0.11 q 0.05,-0.12 0.21,-0.27 l 0.07,-0.06 q 0.13,-0.12 0.13,-0.24 0,-0.08 -0.05,-0.12 -0.05,-0.04 -0.13,-0.04 -0.1,0 -0.22,0.07 v -0.11 q 0.12,-0.06 0.24,-0.06 0.13,0 0.21,0.07 0.08,0.07 0.08,0.18 0,0.08 -0.04,0.15 -0.04,0.06 -0.15,0.15 l -0.05,0.04 q -0.15,0.12 -0.17,0.24 h 0.4 v 0.11 z"
       class="annotation" />
  </g>
  <g
     id="g3208"
     transform="translate(-38.896149,32.178228)">
    <g
       class="bond"
       id="mol1bnd11"
       style="fill:#ff0000;stroke:#444444;stroke-width:0.18000001;stroke-linecap:round;stroke-linejoin:round">
      <line
         id="line26"
         y2="7.3400002"
         x2="45.32"
         y1="7.4299998"
         x1="45.48" />
      <line
         id="line28"
         y2="7.9400001"
         x2="44.900002"
         y1="8.0900002"
         x1="45.169998" />
      <line
         id="line30"
         y2="8.5299997"
         x2="44.48"
         y1="8.75"
         x1="44.869999" />
      <line
         id="line32"
         y2="9.1300001"
         x2="44.060001"
         y1="9.4099998"
         x1="44.560001" />
      <line
         id="line34"
         y2="9.7200003"
         x2="43.639999"
         y1="10.08"
         x1="44.25" />
      <line
         id="line36"
         y2="10.32"
         x2="43.220001"
         y1="10.74"
         x1="43.950001" />
      <line
         id="line38"
         y2="10.92"
         x2="42.799999"
         y1="11.4"
         x1="43.639999" />
      <line
         id="line40"
         y2="11.51"
         x2="42.380001"
         y1="12.06"
         x1="43.330002" />
    </g>
    <path
       style="fill:#444444;stroke:none"
       inkscape:connector-curvature="0"
       d="M 45.32,7.43 45.48,7.34 43.94,4.01 43.58,4.22 43.22,4.43 z"
       class="bond"
       id="mol1bnd12" />
    <g
       class="bond"
       id="mol1bnd13"
       style="fill:#ff0000;stroke:#444444;stroke-width:0.18000001;stroke-linecap:round;stroke-linejoin:round">
      <line
         id="line44"
         y2="6.9299998"
         x2="49.369999"
         y1="6.9299998"
         x1="45.139999" />
      <line
         id="line46"
         y2="7.8400002"
         x2="49.369999"
         y1="7.8400002"
         x1="45.139999" />
    </g>
    <g
       class="bond"
       id="mol1bnd14"
       style="fill:#ff0000;stroke:#444444;stroke-width:0.18000001;stroke-linecap:round;stroke-linejoin:round">
      <line
         id="line49"
         y2="6.9299998"
         x2="55.82"
         y1="6.9299998"
         x1="51.59" />
      <line
         id="line51"
         y2="7.8400002"
         x2="55.82"
         y1="7.8400002"
         x1="51.59" />
    </g>
    <line
       y2="10.55"
       x2="57.389999"
       y1="7.3899999"
       x1="55.560001"
       class="bond"
       id="mol1bnd15"
       style="fill:#ff0000;stroke:#444444;stroke-width:0.18000001;stroke-linecap:round;stroke-linejoin:round" />
    <line
       y2="2.99"
       x2="58.099998"
       y1="7.3899999"
       x1="55.560001"
       class="bond"
       id="mol1bnd16"
       style="fill:#ff0000;stroke:#444444;stroke-width:0.18000001;stroke-linecap:round;stroke-linejoin:round" />
    <path
       style="fill:#444444;stroke:none"
       inkscape:connector-curvature="0"
       d="M 42.17,3.9 V 2.07 h 0.26 V 2.84 H 43.3 V 2.07 h 0.26 V 3.9 H 43.3 V 3.04 H 42.43 V 3.9 z"
       class="atom"
       id="mol1atm15" />
    <path
       style="fill:#444444;stroke:none"
       inkscape:connector-curvature="0"
       d="m 50.63,8.35 q -0.43,0 -0.66,-0.25 -0.23,-0.25 -0.23,-0.71 0,-0.46 0.24,-0.71 0.24,-0.25 0.67,-0.25 0.25,0 0.58,0.08 v 0.24 q -0.38,-0.13 -0.58,-0.13 -0.3,0 -0.46,0.2 -0.16,0.2 -0.16,0.57 0,0.35 0.17,0.55 0.17,0.2 0.48,0.2 0.26,0 0.56,-0.16 V 8.2 q -0.27,0.14 -0.59,0.14 z"
       class="atom"
       id="mol1atm16" />
    <path
       style="fill:#444444;stroke:none"
       inkscape:connector-curvature="0"
       d="m 57.41,12.7 v -1.83 h 0.26 v 0.77 h 0.87 v -0.77 h 0.26 v 1.83 h -0.26 v -0.86 h -0.87 v 0.86 z"
       class="atom"
       id="mol1atm18" />
    <path
       style="fill:#ff0000;stroke:none"
       inkscape:connector-curvature="0"
       id="path87"
       d="m 41.22,13.34 v -0.09 h 0.18 v -0.72 l -0.18,0.05 v -0.09 l 0.31,-0.08 v 0.85 h 0.18 v 0.09 z m 0.74,0 v -0.11 q 0.13,0.05 0.21,0.05 0.09,0 0.14,-0.05 0.05,-0.05 0.05,-0.13 0,-0.19 -0.27,-0.19 h -0.05 v -0.08 h 0.04 q 0.25,0 0.25,-0.18 0,-0.14 -0.17,-0.14 -0.09,0 -0.2,0.05 v -0.11 q 0.11,-0.04 0.21,-0.04 0.28,0 0.28,0.21 0,0.16 -0.19,0.23 0.22,0.05 0.22,0.24 0,0.13 -0.09,0.2 -0.09,0.07 -0.23,0.07 -0.08,0 -0.21,-0.03 z" />
    <path
       style="fill:#ff0000;stroke:none"
       inkscape:connector-curvature="0"
       id="path89"
       d="M 43.13,7.84 V 7.75 h 0.18 V 7.03 L 43.13,7.08 V 6.99 l 0.31,-0.08 v 0.85 h 0.18 v 0.09 z m 1.09,0 V 7.58 H 43.81 V 7.49 l 0.41,-0.56 h 0.11 v 0.56 h 0.12 v 0.1 h -0.12 v 0.26 z m -0.3,-0.36 h 0.3 V 7.07 z" />
    <path
       style="fill:#ff0000;stroke:none"
       inkscape:connector-curvature="0"
       id="path91"
       d="M 56.59,7.85 V 7.76 h 0.18 V 7.04 L 56.59,7.09 V 7 L 56.9,6.92 v 0.85 h 0.18 v 0.09 z m 0.8,0 q 0.02,-0.11 0.05,-0.18 0.03,-0.08 0.12,-0.21 l 0.25,-0.4 H 57.34 V 6.95 h 0.59 v 0.11 q -0.35,0.52 -0.39,0.8 z" />
    <path
       style="fill:#ff0000;stroke:none"
       inkscape:connector-curvature="0"
       id="path93"
       d="M 58.49,2.36 V 2.27 h 0.18 V 1.55 L 58.49,1.6 V 1.51 L 58.8,1.43 v 0.85 h 0.18 v 0.09 z m 0.75,-0.01 v -0.1 q 0.12,0.04 0.2,0.04 0.11,0 0.18,-0.1 0.06,-0.1 0.06,-0.27 -0.09,0.11 -0.21,0.11 -0.12,0 -0.2,-0.08 -0.08,-0.08 -0.08,-0.21 0,-0.14 0.09,-0.23 0.09,-0.09 0.22,-0.09 0.15,0 0.23,0.12 0.09,0.12 0.09,0.33 0,0.24 -0.1,0.37 -0.1,0.14 -0.28,0.14 -0.07,0 -0.19,-0.03 z m 0.08,-0.63 q 0,0.11 0.05,0.17 0.05,0.06 0.13,0.06 0.08,0 0.13,-0.05 0.05,-0.05 0.05,-0.13 0,-0.12 -0.05,-0.19 -0.05,-0.07 -0.14,-0.07 -0.08,0 -0.13,0.06 -0.05,0.06 -0.05,0.15 z" />
    <path
       style="fill:#ff0000;stroke:none"
       inkscape:connector-curvature="0"
       id="path101"
       d="M 40.73,1.5 V 1.41 h 0.18 V 0.69 L 40.73,0.74 V 0.65 l 0.31,-0.08 v 0.85 h 0.18 v 0.09 z m 0.76,0 V 1.39 q 0.09,0.04 0.17,0.04 0.09,0 0.14,-0.05 0.05,-0.05 0.05,-0.15 0,-0.21 -0.28,-0.21 -0.03,0 -0.07,0 V 0.58 h 0.46 V 0.69 H 41.6 v 0.24 q 0.18,0 0.27,0.08 0.1,0.08 0.1,0.22 0,0.13 -0.09,0.21 -0.09,0.08 -0.25,0.08 -0.07,0 -0.16,-0.02 z"
       class="annotation" />
    <path
       style="fill:#ff0000;stroke:none"
       inkscape:connector-curvature="0"
       id="path103"
       d="m 49.919552,9.818042 v -0.09 h 0.18 v -0.72 l -0.18,0.05 v -0.09 l 0.31,-0.08 v 0.85 h 0.18 v 0.09 z m 0.83,-0.47 q 0.09,-0.11 0.22,-0.11 0.12,0 0.2,0.08 0.08,0.08 0.08,0.2 0,0.14 -0.09,0.23 -0.09,0.09 -0.22,0.09 -0.15,0 -0.24,-0.12 -0.09,-0.12 -0.09,-0.34 0,-0.24 0.1,-0.37 0.1,-0.13 0.28,-0.13 0.08,0 0.2,0.03 v 0.11 q -0.13,-0.05 -0.21,-0.05 -0.23,0 -0.23,0.37 z m 0.37,0.2 q 0,-0.1 -0.05,-0.16 -0.05,-0.06 -0.13,-0.06 -0.08,0 -0.13,0.05 -0.06,0.05 -0.06,0.12 0,0.11 0.05,0.18 0.05,0.07 0.14,0.07 0.08,0 0.13,-0.06 0.05,-0.06 0.05,-0.15 z"
       class="annotation" />
    <path
       style="fill:#ff0000;stroke:none"
       inkscape:connector-curvature="0"
       id="path105"
       d="M 58.97,14.19 V 14.1 h 0.18 v -0.72 l -0.18,0.05 v -0.09 l 0.31,-0.08 v 0.85 h 0.18 v 0.09 z m 0.9,-0.5 q -0.13,-0.09 -0.13,-0.21 0,-0.1 0.08,-0.17 0.08,-0.06 0.2,-0.06 0.11,0 0.18,0.05 0.07,0.05 0.07,0.14 0,0.13 -0.17,0.24 0.21,0.1 0.21,0.26 0,0.11 -0.09,0.19 -0.09,0.07 -0.22,0.07 -0.13,0 -0.22,-0.07 -0.08,-0.07 -0.08,-0.18 0,-0.16 0.18,-0.27 z m 0.16,-0.04 q 0.13,-0.08 0.13,-0.19 0,-0.05 -0.04,-0.09 -0.04,-0.03 -0.11,-0.03 -0.07,0 -0.11,0.03 -0.04,0.03 -0.04,0.09 0,0.05 0.04,0.09 0.04,0.04 0.14,0.1 z m -0.09,0.09 q -0.07,0.06 -0.1,0.1 -0.03,0.04 -0.03,0.11 0,0.08 0.05,0.13 0.05,0.05 0.13,0.05 0.08,0 0.13,-0.04 0.05,-0.04 0.05,-0.11 0,-0.05 -0.03,-0.09 -0.03,-0.04 -0.12,-0.09 z"
       class="annotation" />
  </g>
  <text
     xml:space="preserve"
     style="font-size:2.25777769px;font-style:normal;font-weight:normal;line-height:125%;letter-spacing:0px;word-spacing:0px;fill:#000000;fill-opacity:1;stroke:none;font-family:Sans"
     x="30.231209"
     y="3.1264923"
     id="text3273"
     sodipodi:linespacing="125%"><tspan
       sodipodi:role="line"
       id="tspan3275"
       x="30.231209"
       y="3.1264923"
       style="font-size:2.25777769px;font-weight:bold;text-align:center;text-anchor:middle;-inkscape-font-specification:Sans Bold">Type</tspan></text>
  <text
     sodipodi:linespacing="125%"
     id="text3277"
     y="12.048282"
     x="30.306313"
     style="font-size:2.25777769px;font-style:normal;font-weight:normal;line-height:125%;letter-spacing:0px;word-spacing:0px;fill:#000000;fill-opacity:1;stroke:none;font-family:Sans"
     xml:space="preserve"><tspan
       style="font-size:2.25777769px;font-weight:normal;text-align:center;text-anchor:middle;-inkscape-font-specification:Sans"
       y="12.048282"
       x="30.306313"
       id="tspan3279"
       sodipodi:role="line">Tetrahedral</tspan></text>
  <text
     xml:space="preserve"
     style="font-size:2.25777769px;font-style:normal;font-weight:normal;line-height:125%;letter-spacing:0px;word-spacing:0px;fill:#000000;fill-opacity:1;stroke:none;font-family:Sans"
     x="30.160929"
     y="27.005402"
     id="text3281"
     sodipodi:linespacing="125%"><tspan
       sodipodi:role="line"
       id="tspan3283"
       x="30.160929"
       y="27.005402"
       style="font-size:2.25777769px;font-weight:normal;text-align:center;text-anchor:middle;-inkscape-font-specification:Sans">Cis-trans</tspan></text>
  <text
     xml:space="preserve"
     style="font-size:2.25777769px;font-style:normal;font-weight:normal;line-height:125%;letter-spacing:0px;word-spacing:0px;fill:#000000;fill-opacity:1;stroke:none;font-family:Sans"
     x="30.306313"
     y="40.519291"
     id="text3285"
     sodipodi:linespacing="125%"><tspan
       sodipodi:role="line"
       id="tspan3287"
       x="30.306313"
       y="40.519291"
       style="font-size:2.25777769px;font-weight:normal;text-align:center;text-anchor:middle;-inkscape-font-specification:Sans">Extended</tspan><tspan
       sodipodi:role="line"
       x="30.306313"
       y="43.341515"
       style="font-size:2.25777769px;font-weight:normal;text-align:center;text-anchor:middle;-inkscape-font-specification:Sans"
       id="tspan3289">Tetrahedral</tspan></text>
  <text
     sodipodi:linespacing="125%"
     id="text3291"
     y="3.1264923"
     x="41.249519"
     style="font-size:2.25777769px;font-style:normal;font-weight:normal;line-height:125%;letter-spacing:0px;word-spacing:0px;fill:#000000;fill-opacity:1;stroke:none;font-family:Sans"
     xml:space="preserve"><tspan
       style="font-size:2.25777769px;font-weight:bold;text-align:center;text-anchor:middle;-inkscape-font-specification:Sans Bold"
       y="3.1264923"
       x="41.249519"
       id="tspan3293"
       sodipodi:role="line">Focus</tspan></text>
  <text
     xml:space="preserve"
     style="font-size:2.25777769px;font-style:normal;font-weight:normal;line-height:125%;letter-spacing:0px;word-spacing:0px;fill:#ff0000;fill-opacity:1;stroke:none;font-family:Sans"
     x="41.324623"
     y="12.048282"
     id="text3295"
     sodipodi:linespacing="125%"><tspan
       sodipodi:role="line"
       id="tspan3297"
       x="41.324623"
       y="12.048282"
       style="font-size:2.25777769px;font-weight:normal;text-align:center;text-anchor:middle;fill:#ff0000;fill-opacity:1;-inkscape-font-specification:Sans">2</tspan></text>
  <text
     sodipodi:linespacing="125%"
     id="text3299"
     y="27.005402"
     x="41.179241"
     style="font-size:2.25777769px;font-style:normal;font-weight:normal;line-height:125%;letter-spacing:0px;word-spacing:0px;fill:#ff0000;fill-opacity:0.70980392;stroke:none;font-family:Sans"
     xml:space="preserve"><tspan
       style="font-size:2.25777769px;font-weight:normal;text-align:center;text-anchor:middle;fill:#ff0000;fill-opacity:0.70980392;-inkscape-font-specification:Sans"
       y="27.005402"
       x="41.179241"
       id="tspan3301"
       sodipodi:role="line">9-10</tspan></text>
  <text
     sodipodi:linespacing="125%"
     id="text3303"
     y="41.648182"
     x="41.324623"
     style="font-size:2.25777769px;font-style:normal;font-weight:normal;line-height:125%;letter-spacing:0px;word-spacing:0px;fill:#ff0000;fill-opacity:0.70980392;stroke:none;font-family:Sans"
     xml:space="preserve"><tspan
       id="tspan3307"
       style="font-size:2.25777769px;font-weight:normal;text-align:center;text-anchor:middle;fill:#ff0000;fill-opacity:0.70980392;-inkscape-font-specification:Sans"
       y="41.648182"
       x="41.324623"
       sodipodi:role="line">16</tspan></text>
  <text
     xml:space="preserve"
     style="font-size:2.25777769px;font-style:normal;font-weight:normal;line-height:125%;letter-spacing:0px;word-spacing:0px;fill:#000000;fill-opacity:1;stroke:none;font-family:Sans"
     x="52.258255"
     y="3.1264923"
     id="text3311"
     sodipodi:linespacing="125%"><tspan
       sodipodi:role="line"
       id="tspan3313"
       x="52.258255"
       y="3.1264923"
       style="font-size:2.25777769px;font-weight:bold;text-align:center;text-anchor:middle;-inkscape-font-specification:Sans Bold">Carriers</tspan></text>
  <text
     sodipodi:linespacing="125%"
     id="text3315"
     y="9.226059"
     x="52.333359"
     style="font-size:2.25777769px;font-style:normal;font-weight:normal;line-height:125%;letter-spacing:0px;word-spacing:0px;fill:#ff0000;fill-opacity:0.70980392;stroke:none;font-family:Sans"
     xml:space="preserve"><tspan
       style="font-size:2.25777769px;font-weight:normal;text-align:center;text-anchor:middle;fill:#ff0000;fill-opacity:0.70980392;-inkscape-font-specification:Sans"
       y="9.226059"
       x="52.333359"
       id="tspan3317"
       sodipodi:role="line">1,5,3,4</tspan></text>
  <text
     xml:space="preserve"
     style="font-size:2.25777769px;font-style:normal;font-weight:normal;line-height:125%;letter-spacing:0px;word-spacing:0px;fill:#ff0000;fill-opacity:0.70980392;stroke:none;font-family:Sans"
     x="52.187977"
     y="25.312071"
     id="text3319"
     sodipodi:linespacing="125%"><tspan
       sodipodi:role="line"
       id="tspan3321"
       x="52.187977"
       y="25.312071"
       style="font-size:2.25777769px;font-weight:normal;text-align:center;text-anchor:middle;fill:#ff0000;fill-opacity:0.70980392;-inkscape-font-specification:Sans">8-9,10-11</tspan></text>
  <text
     xml:space="preserve"
     style="font-size:2.25777769px;font-style:normal;font-weight:normal;line-height:125%;letter-spacing:0px;word-spacing:0px;fill:#ff0000;fill-opacity:0.70980392;stroke:none;font-family:Sans"
     x="52.333359"
     y="39.954842"
     id="text3323"
     sodipodi:linespacing="125%"><tspan
       sodipodi:role="line"
       x="52.333359"
       y="39.954842"
       style="font-size:2.25777769px;font-weight:normal;text-align:center;text-anchor:middle;fill:#ff0000;fill-opacity:0.70980392;-inkscape-font-specification:Sans"
       id="tspan3325">15,19,13,18</tspan></text>
  <text
     sodipodi:linespacing="125%"
     id="text3327"
     y="3.1264923"
     x="67.381256"
     style="font-size:2.25777769px;font-style:normal;font-weight:normal;line-height:125%;letter-spacing:0px;word-spacing:0px;fill:#000000;fill-opacity:1;stroke:none;font-family:Sans"
     xml:space="preserve"><tspan
       style="font-size:2.25777769px;font-weight:bold;text-align:center;text-anchor:middle;-inkscape-font-specification:Sans Bold"
       y="3.1264923"
       x="67.381256"
       id="tspan3329"
       sodipodi:role="line">Configuration</tspan></text>
  <text
     xml:space="preserve"
     style="font-size:2.25777769px;font-style:normal;font-weight:normal;line-height:125%;letter-spacing:0px;word-spacing:0px;fill:#ff0000;fill-opacity:0.70980392;stroke:none;font-family:Sans"
     x="67.45636"
     y="9.226059"
     id="text3331"
     sodipodi:linespacing="125%"><tspan
       sodipodi:role="line"
       id="tspan3333"
       x="67.45636"
       y="9.226059"
       style="font-size:2.25777769px;font-weight:normal;text-align:center;text-anchor:middle;fill:#ff0000;fill-opacity:0.70980392;-inkscape-font-specification:Sans">CCW</tspan></text>
  <text
     sodipodi:linespacing="125%"
     id="text3335"
     y="25.312071"
     x="67.310974"
     style="font-size:2.25777769px;font-style:normal;font-weight:normal;line-height:125%;letter-spacing:0px;word-spacing:0px;fill:#ff0000;fill-opacity:0.70980392;stroke:none;font-family:Sans"
     xml:space="preserve"><tspan
       style="font-size:2.25777769px;font-weight:normal;text-align:center;text-anchor:middle;fill:#ff0000;fill-opacity:0.70980392;-inkscape-font-specification:Sans"
       y="25.312071"
       x="67.310974"
       id="tspan3337"
       sodipodi:role="line">Opposite</tspan></text>
  <text
     sodipodi:linespacing="125%"
     id="text3339"
     y="39.954842"
     x="67.45636"
     style="font-size:2.25777769px;font-style:normal;font-weight:normal;line-height:125%;letter-spacing:0px;word-spacing:0px;fill:#ff0000;fill-opacity:0.70980392;stroke:none;font-family:Sans"
     xml:space="preserve"><tspan
       id="tspan3341"
       style="font-size:2.25777769px;font-weight:normal;text-align:center;text-anchor:middle;fill:#ff0000;fill-opacity:0.70980392;-inkscape-font-specification:Sans"
       y="39.954842"
       x="67.45636"
       sodipodi:role="line">CCW</tspan></text>
  <text
     sodipodi:linespacing="125%"
     id="text3347"
     y="28.134289"
     x="52.187977"
     style="font-size:2.25777769px;font-style:normal;font-weight:normal;line-height:125%;letter-spacing:0px;word-spacing:0px;fill:#ff0000;fill-opacity:0.70980392;stroke:none;font-family:Sans"
     xml:space="preserve"><tspan
       style="font-size:2.25777769px;font-weight:normal;text-align:center;text-anchor:middle;fill:#ff0000;fill-opacity:0.70980392;-inkscape-font-specification:Sans"
       y="28.134289"
       x="52.187977"
       id="tspan3349"
       sodipodi:role="line">8-9,10-12</tspan></text>
  <text
     xml:space="preserve"
     style="font-size:2.25777769px;font-style:normal;font-weight:normal;line-height:125%;letter-spacing:0px;word-spacing:0px;fill:#ff0000;fill-opacity:0.70980392;stroke:none;font-family:Sans"
     x="67.310974"
     y="28.134289"
     id="text3351"
     sodipodi:linespacing="125%"><tspan
       sodipodi:role="line"
       id="tspan3353"
       x="67.310974"
       y="28.134289"
       style="font-size:2.25777769px;font-weight:normal;text-align:center;text-anchor:middle;fill:#ff0000;fill-opacity:0.70980392;-inkscape-font-specification:Sans">Together</tspan></text>
  <text
     xml:space="preserve"
     style="font-size:2.25777769px;font-style:normal;font-weight:normal;line-height:125%;letter-spacing:0px;word-spacing:0px;fill:#ff0000;fill-opacity:0.70980392;stroke:none;font-family:Sans"
     x="52.333359"
     y="12.048282"
     id="text3355"
     sodipodi:linespacing="125%"><tspan
       sodipodi:role="line"
       id="tspan3357"
       x="52.333359"
       y="12.048282"
       style="font-size:2.25777769px;font-weight:normal;text-align:center;text-anchor:middle;fill:#ff0000;fill-opacity:0.70980392;-inkscape-font-specification:Sans">1,5,4,3</tspan></text>
  <text
     sodipodi:linespacing="125%"
     id="text3359"
     y="12.048282"
     x="67.45636"
     style="font-size:2.25777769px;font-style:normal;font-weight:normal;line-height:125%;letter-spacing:0px;word-spacing:0px;fill:#ff0000;fill-opacity:0.70980392;stroke:none;font-family:Sans"
     xml:space="preserve"><tspan
       style="font-size:2.25777769px;font-weight:normal;text-align:center;text-anchor:middle;fill:#ff0000;fill-opacity:0.70980392;-inkscape-font-specification:Sans"
       y="12.048282"
       x="67.45636"
       id="tspan3361"
       sodipodi:role="line">CW</tspan></text>
  <text
     sodipodi:linespacing="125%"
     id="text3363"
     y="14.870504"
     x="52.333359"
     style="font-size:2.25777769px;font-style:normal;font-weight:normal;line-height:125%;letter-spacing:0px;word-spacing:0px;fill:#ff0000;fill-opacity:0.70980392;stroke:none;font-family:Sans"
     xml:space="preserve"><tspan
       style="font-size:2.25777769px;font-weight:normal;text-align:center;text-anchor:middle;fill:#ff0000;fill-opacity:0.70980392;-inkscape-font-specification:Sans"
       y="14.870504"
       x="52.333359"
       id="tspan3365"
       sodipodi:role="line">5,1,3,4</tspan></text>
  <text
     xml:space="preserve"
     style="font-size:2.25777769px;font-style:normal;font-weight:normal;line-height:125%;letter-spacing:0px;word-spacing:0px;fill:#ff0000;fill-opacity:0.70980392;stroke:none;font-family:Sans"
     x="67.45636"
     y="14.870504"
     id="text3367"
     sodipodi:linespacing="125%"><tspan
       sodipodi:role="line"
       id="tspan3369"
       x="67.45636"
       y="14.870504"
       style="font-size:2.25777769px;font-weight:normal;text-align:center;text-anchor:middle;fill:#ff0000;fill-opacity:0.70980392;-inkscape-font-specification:Sans">CW</tspan></text>
  <text
     sodipodi:linespacing="125%"
     id="text3371"
     y="42.777069"
     x="52.333359"
     style="font-size:2.25777769px;font-style:normal;font-weight:normal;line-height:125%;letter-spacing:0px;word-spacing:0px;fill:#ff0000;fill-opacity:0.70980392;stroke:none;font-family:Sans"
     xml:space="preserve"><tspan
       id="tspan3373"
       style="font-size:2.25777769px;font-weight:normal;text-align:center;text-anchor:middle;fill:#ff0000;fill-opacity:0.70980392;-inkscape-font-specification:Sans"
       y="42.777069"
       x="52.333359"
       sodipodi:role="line">19,15,13,18</tspan></text>
  <text
     xml:space="preserve"
     style="font-size:2.25777769px;font-style:normal;font-weight:normal;line-height:125%;letter-spacing:0px;word-spacing:0px;fill:#ff0000;fill-opacity:0.70980392;stroke:none;font-family:Sans"
     x="67.45636"
     y="42.777069"
     id="text3375"
     sodipodi:linespacing="125%"><tspan
       sodipodi:role="line"
       x="67.45636"
       y="42.777069"
       style="font-size:2.25777769px;font-weight:normal;text-align:center;text-anchor:middle;fill:#ff0000;fill-opacity:0.70980392;-inkscape-font-specification:Sans"
       id="tspan3377">CW</tspan></text>
</svg>
